<?xml version="1.0" standalone="no"?>
<!DOCTYPE svg PUBLIC "-//W3C//DTD SVG 20010904//EN"
 "http://www.w3.org/TR/2001/REC-SVG-20010904/DTD/svg10.dtd">
<svg version="1.0" xmlns="http://www.w3.org/2000/svg"
 width="4000.000000pt" height="4000.000000pt" viewBox="0 0 4000.000000 4000.000000"
 preserveAspectRatio="xMidYMid meet">

<g transform="translate(0.000000,4000.000000) scale(0.100000,-0.100000)"
fill="#000000" stroke="none">
<path d="M19905 38275 c-451 -107 -501 -116 -675 -122 -191 -6 -244 3 -393 67
-52 22 -100 40 -106 40 -22 0 -10 -66 21 -120 38 -67 177 -207 238 -241 25
-13 45 -31 45 -39 0 -20 -121 -83 -220 -116 -54 -18 -104 -27 -155 -28 -67 -1
-75 -3 -78 -22 -4 -29 63 -91 161 -149 45 -26 84 -50 86 -51 2 -2 -27 -38 -64
-81 -119 -140 -152 -240 -195 -593 -56 -464 -59 -479 -114 -595 -18 -38 -65
-110 -105 -159 -39 -49 -70 -91 -68 -92 2 -2 52 5 112 16 60 11 120 20 133 20
l25 0 -6 -277 c-5 -221 -10 -298 -26 -373 -33 -160 -71 -256 -145 -364 -26
-37 -45 -70 -43 -72 4 -4 86 13 293 58 79 18 84 12 84 -82 0 -180 -41 -427
-92 -549 -33 -78 -87 -142 -146 -173 -71 -38 4 -54 188 -39 69 5 126 8 128 6
6 -5 -56 -147 -104 -240 -25 -49 -97 -170 -161 -269 -191 -298 -206 -339 -238
-656 -9 -85 -20 -159 -26 -165 -13 -13 -40 5 -62 42 -28 49 -56 177 -69 319
-11 125 -13 134 -32 134 -87 1 -328 24 -407 40 -278 57 -689 228 -944 395 -50
32 -128 97 -175 144 -69 69 -95 105 -137 186 -86 167 -121 319 -103 448 22
152 93 228 382 406 157 96 266 199 313 294 54 110 66 165 72 337 4 119 1 173
-11 230 -19 92 -77 212 -147 305 -70 93 -288 315 -369 375 -118 89 -281 165
-650 302 -471 175 -996 448 -1670 868 -397 247 -517 309 -597 310 -34 0 -46
-5 -58 -24 -72 -109 46 -515 230 -795 143 -217 415 -430 980 -766 132 -79 249
-151 260 -159 70 -54 -145 42 -462 204 -519 267 -821 452 -1919 1173 -700 459
-909 588 -998 617 -37 12 -41 11 -58 -10 -71 -88 76 -543 270 -835 80 -121
295 -340 452 -461 400 -309 994 -670 1675 -1021 425 -219 437 -231 134 -134
-186 59 -470 155 -809 274 -1294 454 -1929 757 -2715 1297 -110 75 -214 145
-232 154 -32 16 -33 16 -50 -11 -16 -23 -18 -51 -18 -208 0 -163 2 -187 24
-250 84 -249 266 -514 521 -758 228 -219 526 -420 901 -608 500 -250 998 -427
1804 -643 407 -109 427 -115 419 -127 -7 -12 -81 -9 -444 22 -1398 117 -2491
293 -3316 535 -83 24 -155 44 -159 44 -16 0 5 -170 30 -235 64 -172 250 -421
418 -563 182 -154 443 -304 764 -440 327 -140 581 -202 1028 -251 348 -39 500
-46 995 -46 478 0 613 6 909 40 115 13 143 13 129 0 -18 -18 -541 -128 -970
-204 -710 -126 -1306 -202 -2163 -276 -694 -60 -812 -78 -830 -122 -22 -58
208 -326 410 -478 82 -62 297 -167 426 -209 260 -85 509 -119 859 -119 632 0
1265 131 2115 440 490 178 568 203 517 167 -105 -73 -1005 -563 -1657 -901
-490 -255 -803 -392 -1485 -653 -234 -90 -290 -115 -290 -131 0 -19 105 -111
200 -175 112 -74 247 -140 380 -185 l95 -32 325 -5 c515 -7 614 8 960 144 544
215 1072 545 1812 1131 65 51 120 93 124 93 8 0 -43 -64 -189 -235 -281 -329
-862 -914 -1215 -1223 -86 -75 -320 -274 -520 -440 -386 -323 -472 -401 -472
-431 0 -43 110 -106 245 -141 439 -112 964 45 1445 433 270 217 647 602 921
937 47 58 167 213 266 345 99 132 191 249 203 260 l23 20 -6 -33 c-19 -98
-317 -651 -665 -1237 -241 -404 -419 -682 -742 -1153 -50 -74 -90 -141 -88
-150 7 -34 461 -16 616 24 116 30 281 126 441 257 108 88 315 299 410 417 95
119 259 364 361 540 103 181 277 533 340 690 76 191 117 280 130 280 15 0 7
-39 -45 -245 -164 -637 -438 -1412 -680 -1923 -47 -101 -85 -185 -83 -187 7
-8 321 47 403 70 113 32 270 109 357 175 324 246 629 791 829 1485 22 77 45
144 50 149 14 15 11 -125 -6 -292 -56 -539 -142 -1057 -210 -1273 -14 -44 -25
-87 -25 -95 0 -39 224 8 357 74 310 157 627 587 847 1152 122 314 153 301 140
-60 -6 -186 -22 -279 -65 -388 -34 -85 -170 -359 -264 -532 -157 -288 -224
-444 -271 -625 -28 -105 -29 -120 -29 -335 0 -337 12 -371 159 -456 172 -99
236 -197 236 -362 0 -98 -15 -164 -58 -255 -113 -241 -514 -436 -736 -358 -75
26 -138 71 -228 162 -76 78 -98 113 -81 130 4 4 71 13 149 18 82 5 155 15 176
24 48 20 132 108 163 171 21 43 25 64 25 146 0 162 -45 283 -140 380 -93 95
-220 140 -355 125 -35 -3 -114 -24 -175 -45 l-112 -38 -30 67 c-137 304 -212
391 -339 391 -146 0 -380 -111 -503 -239 l-39 -40 119 -112 c238 -224 355
-348 381 -405 14 -31 34 -111 48 -195 47 -273 94 -362 255 -475 119 -83 153
-126 235 -299 53 -112 79 -155 95 -160 38 -12 172 7 535 76 1320 251 2520 307
3797 179 400 -40 819 -105 1338 -205 157 -30 308 -58 336 -61 49 -6 52 -5 77
27 14 19 48 73 76 122 83 144 108 176 255 322 191 189 226 254 251 472 8 67
21 139 30 160 11 26 98 119 270 290 l255 251 -84 79 c-129 123 -296 200 -451
209 -96 6 -118 -4 -193 -94 -70 -84 -106 -152 -148 -278 -20 -60 -37 -110 -38
-111 -2 -2 -38 17 -82 42 -206 118 -357 113 -532 -20 -82 -62 -158 -156 -177
-219 -28 -92 -14 -289 26 -367 24 -49 80 -96 159 -133 59 -28 74 -31 165 -31
55 0 126 4 158 9 l59 9 -17 -34 c-47 -92 -139 -179 -255 -242 -241 -131 -464
-93 -670 113 -140 140 -202 273 -204 435 -1 157 44 238 187 330 94 62 143 109
175 170 27 50 27 51 27 260 -1 416 -54 596 -296 1011 -201 347 -272 496 -321
683 -20 76 -23 109 -23 291 1 170 3 211 17 243 31 68 40 54 124 -175 149 -408
356 -751 603 -999 101 -100 139 -132 191 -157 119 -56 325 -122 382 -122 38 0
37 7 -17 253 -84 382 -206 1231 -204 1422 l0 70 78 -235 c155 -466 308 -807
469 -1050 237 -355 472 -539 792 -621 72 -19 361 -61 369 -54 2 2 -24 55 -57
117 -223 419 -648 1551 -768 2043 -51 213 -25 201 76 -33 158 -366 312 -654
494 -922 335 -493 699 -856 974 -971 166 -69 477 -127 620 -115 88 7 112 18
112 52 0 47 -38 109 -248 403 -247 345 -545 805 -772 1191 -201 343 -505 911
-524 980 -12 42 59 -41 303 -355 283 -363 455 -566 653 -770 481 -495 869
-765 1255 -873 95 -26 106 -27 348 -27 233 0 256 2 338 24 49 13 121 40 160
60 61 30 73 40 75 64 5 41 -77 122 -393 385 -465 389 -721 615 -1045 923 -369
352 -949 973 -928 994 2 3 97 -61 209 -142 714 -513 992 -692 1369 -882 319
-161 567 -257 792 -307 213 -47 571 -44 838 7 270 52 631 260 642 371 4 31
-49 57 -307 152 -478 177 -945 376 -1314 560 -498 250 -1723 914 -1801 977
l-25 21 30 -7 c16 -4 151 -52 300 -107 1044 -387 1688 -521 2425 -505 483 11
743 61 1015 197 158 79 220 128 401 312 147 150 214 238 214 285 0 43 -41 49
-800 118 -1002 91 -1422 142 -1980 240 -685 120 -1248 240 -1227 262 3 2 63
-2 134 -11 229 -29 371 -36 843 -42 478 -7 728 1 1004 32 787 86 1543 374
1912 727 212 202 423 549 424 695 l0 52 -34 0 c-19 0 -140 -27 -268 -60 -979
-250 -2578 -480 -3568 -515 l-155 -5 390 99 c438 111 591 154 880 248 603 197
1072 413 1490 688 535 351 895 787 981 1185 18 87 18 255 -2 340 -8 39 -20 72
-24 75 -5 3 -75 -44 -156 -105 -561 -423 -1305 -825 -2069 -1118 -409 -157
-1574 -553 -1730 -588 -50 -11 -20 9 150 99 564 299 691 367 864 467 597 344
983 621 1281 920 196 196 288 327 339 484 39 117 60 234 68 367 7 117 -1 177
-23 186 -25 9 -294 -156 -980 -603 -818 -533 -1317 -838 -1788 -1096 -207
-113 -464 -241 -528 -263 l-43 -15 26 23 c14 13 102 70 195 127 259 158 528
339 644 433 254 204 402 411 474 661 37 126 96 408 96 456 l0 42 -59 -4 c-94
-7 -235 -80 -711 -370 -518 -315 -1123 -620 -1620 -815 -395 -155 -467 -188
-606 -281 -193 -130 -406 -366 -494 -547 -61 -126 -72 -183 -72 -370 0 -123 4
-162 21 -215 47 -150 162 -281 367 -420 284 -192 382 -281 403 -363 16 -65 14
-222 -4 -292 -58 -222 -250 -450 -520 -615 -173 -107 -473 -231 -698 -290
-132 -35 -241 -49 -460 -58 -126 -6 -171 -11 -181 -22 -9 -10 -17 -66 -25
-171 -12 -176 -33 -261 -78 -312 l-30 -34 5 128 c5 145 -4 207 -50 349 -41
126 -91 232 -171 364 -67 109 -80 152 -52 162 24 10 17 55 -21 128 -79 154
-241 356 -522 650 -100 104 -179 193 -177 196 2 4 68 10 146 13 214 8 212 17
-21 129 -194 93 -315 175 -420 284 -188 195 -330 474 -330 645 0 81 17 130 63
177 57 60 73 64 291 72 207 9 303 23 454 66 184 53 219 129 67 148 -27 3 -136
31 -241 60 -238 68 -307 78 -479 69 -153 -7 -175 4 -72 36 168 51 250 52 457
1 252 -61 389 -62 506 -5 62 31 144 106 144 133 0 18 -12 20 -177 25 -188 6
-217 11 -478 82 -177 48 -276 51 -400 11 -43 -14 -81 -23 -83 -21 -9 9 86 60
229 124 377 168 580 221 793 207 170 -11 291 -55 403 -145 75 -61 105 -105
101 -151 -2 -26 1 -35 12 -35 45 0 143 244 156 386 20 226 -98 437 -328 589
-205 134 -432 190 -780 190 -69 0 -133 3 -142 6 -13 5 -16 23 -16 93 0 106
-17 144 -83 188 -89 59 -302 128 -472 153 -44 6 -174 13 -290 16 l-210 4 -150
-35z m516 -545 c188 -45 323 -70 383 -70 61 0 146 -12 146 -20 0 -4 -19 -15
-42 -26 -55 -25 -121 -91 -191 -191 -69 -98 -118 -143 -155 -143 -98 1 -222
121 -222 215 0 49 20 45 70 -15 80 -95 140 -112 215 -60 29 20 52 47 70 83 29
60 26 83 -14 98 -80 31 -663 34 -845 4 -45 -7 -83 -11 -85 -9 -10 9 145 69
307 119 97 29 182 54 188 54 7 1 85 -17 175 -39z m-10 -8109 c186 -72 342
-224 414 -402 41 -104 74 -135 221 -209 108 -54 139 -75 204 -140 95 -93 147
-193 189 -359 33 -131 48 -151 115 -151 64 0 114 -18 133 -47 37 -55 8 -229
-61 -377 -108 -232 -317 -376 -545 -376 -205 0 -379 95 -510 278 -39 54 -101
158 -101 169 0 6 61 -7 135 -28 251 -70 335 -74 448 -20 203 97 307 314 252
526 -38 146 -158 291 -296 359 -69 34 -194 66 -257 66 -50 0 -55 10 -62 137
-6 106 -10 125 -41 188 -42 88 -139 187 -235 241 -62 35 -76 39 -139 39 -61 0
-78 -5 -134 -35 -92 -49 -198 -158 -240 -245 -31 -63 -35 -82 -41 -188 -4 -64
-10 -120 -13 -123 -3 -4 -59 -13 -123 -21 -167 -20 -255 -61 -357 -167 -58
-61 -123 -188 -138 -271 -24 -128 12 -297 79 -375 49 -58 142 -116 224 -141
55 -17 88 -20 185 -17 115 3 120 4 206 46 105 50 117 51 117 15 0 -87 -183
-289 -322 -357 -123 -60 -301 -82 -414 -52 -122 32 -257 132 -336 249 -75 110
-128 275 -128 397 0 100 17 116 137 130 52 5 81 14 94 27 12 11 27 57 40 118
28 132 59 206 119 286 59 78 114 122 275 219 153 92 169 107 194 189 26 85
122 231 198 302 63 58 159 114 232 135 68 20 213 12 282 -15z"/>
<path d="M7915 29250 c-400 -24 -806 -134 -1145 -311 -147 -77 -368 -224 -490
-327 -123 -103 -315 -300 -420 -433 -239 -298 -438 -694 -555 -1100 -74 -256
-90 -421 -90 -924 1 -304 5 -424 18 -543 62 -542 184 -966 417 -1437 228 -463
478 -812 958 -1339 275 -301 476 -547 649 -794 87 -125 163 -258 163 -287 0
-17 -1 -17 -20 0 -11 10 -73 95 -137 189 -116 170 -119 173 -538 596 -574 580
-673 689 -925 1020 -194 255 -253 323 -328 380 -284 213 -744 277 -1003 139
-204 -109 -351 -425 -336 -719 12 -215 86 -344 247 -425 103 -51 184 -69 423
-91 261 -23 276 -47 40 -64 -295 -22 -430 -52 -593 -132 -153 -75 -218 -143
-298 -308 -107 -221 -139 -376 -108 -531 23 -111 66 -197 130 -258 62 -57 113
-86 197 -107 54 -14 93 -14 323 -5 172 8 278 8 311 2 90 -17 162 -50 216 -99
67 -60 145 -179 167 -254 13 -46 21 -58 37 -58 12 0 90 41 175 91 221 130 325
181 305 149 -3 -5 -76 -59 -163 -119 -211 -148 -305 -224 -445 -361 -420 -408
-708 -939 -768 -1415 -17 -139 -7 -388 20 -490 43 -163 124 -290 216 -338 31
-17 57 -22 120 -22 100 1 151 24 242 109 79 73 132 177 223 436 67 193 166
406 253 545 52 84 97 140 97 119 0 -5 -40 -99 -89 -209 -190 -427 -275 -761
-312 -1229 -17 -217 -7 -683 21 -910 95 -804 343 -1514 756 -2166 76 -121 233
-344 469 -665 429 -585 505 -777 406 -1032 -45 -115 -95 -168 -219 -231 -53
-28 -110 -64 -125 -80 -79 -83 -20 -253 152 -434 139 -147 293 -247 461 -300
65 -20 95 -23 220 -22 124 0 154 3 210 23 199 69 349 208 450 415 76 155 93
243 88 451 -4 156 -7 176 -32 245 -63 167 -166 344 -315 540 -52 69 -119 156
-148 195 -87 114 -63 110 66 -11 200 -188 361 -439 455 -712 20 -57 40 -110
44 -119 7 -12 23 3 70 66 121 161 192 309 253 532 31 110 32 122 36 355 5 227
3 246 -18 325 -32 119 -125 295 -267 506 -67 101 -122 187 -122 192 0 19 24
22 247 31 264 11 299 19 399 89 172 120 287 313 315 529 20 148 -10 298 -83
420 -39 64 -151 173 -210 203 -51 26 -74 23 -245 -33 -116 -38 -137 -41 -233
-42 -96 0 -112 3 -185 33 -186 76 -363 200 -484 342 -176 207 -349 528 -407
758 -32 123 -45 397 -34 666 8 187 22 293 61 467 24 108 24 150 2 177 -10 11
-61 46 -113 77 -198 117 -339 249 -456 424 -136 205 -188 372 -208 665 -7 93
-3 85 49 -100 82 -295 214 -523 430 -740 213 -214 409 -314 590 -303 146 10
268 103 347 265 l42 87 7 159 c4 87 10 161 13 164 12 13 300 -276 424 -426
131 -157 259 -387 302 -541 49 -178 66 -428 33 -497 -19 -41 -98 -107 -163
-136 -36 -17 -74 -22 -183 -27 -136 -5 -139 -6 -163 -33 -37 -43 -75 -178 -81
-292 -5 -91 -3 -108 21 -180 36 -105 115 -258 176 -339 159 -209 508 -355 860
-360 113 -1 117 0 185 33 162 80 379 367 451 594 10 31 21 54 24 50 4 -5 13
-62 19 -128 45 -448 96 -611 236 -750 123 -122 259 -184 421 -193 209 -11 338
62 492 278 78 109 98 118 122 55 22 -61 20 -334 -3 -445 -38 -175 -123 -326
-267 -471 -91 -92 -165 -145 -245 -175 -44 -17 -80 -19 -286 -19 -219 0 -238
-1 -258 -19 -31 -28 -41 -78 -41 -206 0 -231 67 -352 249 -450 45 -25 83 -49
83 -55 -1 -18 -58 -24 -352 -34 -393 -14 -493 -32 -680 -124 -99 -49 -213
-154 -249 -228 -44 -93 -65 -267 -39 -324 13 -30 49 -41 159 -51 43 -4 83 -10
90 -15 9 -5 -42 -64 -176 -201 -207 -210 -270 -294 -345 -451 -84 -176 -118
-361 -106 -577 15 -284 137 -547 347 -745 189 -178 314 -222 609 -212 223 7
334 43 458 146 145 121 252 315 199 359 -8 7 -75 13 -163 15 -111 2 -157 7
-179 19 -43 23 -135 117 -151 155 -40 94 9 226 122 332 103 97 154 118 519
216 578 156 831 286 1139 589 603 594 875 1505 827 2766 -20 503 -88 873 -226
1225 -89 228 -189 403 -340 590 -53 65 -105 134 -117 153 l-21 34 22 26 c160
199 181 258 181 531 0 476 -124 756 -505 1136 -236 236 -414 356 -801 542 -63
30 -114 56 -114 58 0 1 126 0 279 -3 308 -5 362 0 467 48 121 55 236 149 291
240 12 19 31 64 43 100 19 58 21 82 19 225 -2 88 0 165 4 172 4 6 62 49 130
94 340 230 470 373 572 634 59 149 78 252 79 415 1 133 -1 151 -25 217 -44
120 -146 245 -239 293 -47 24 -142 37 -415 55 -356 24 -410 38 -725 185 -283
132 -383 164 -550 176 -242 16 -481 -50 -605 -167 -104 -98 -135 -171 -159
-364 -17 -140 -35 -200 -83 -272 -87 -131 -323 -294 -488 -338 -76 -20 -256
-35 -410 -34 l-120 0 140 34 c308 73 484 155 574 269 59 74 100 230 101 381 0
64 -5 90 -24 132 -69 148 -284 281 -482 300 -36 3 -67 10 -70 15 -3 5 52 68
123 141 141 146 182 209 209 323 29 124 3 245 -83 382 -123 198 -230 277 -421
312 -31 5 -166 17 -299 25 -265 16 -360 27 -443 51 -125 36 -318 161 -432 282
-89 93 -71 116 35 43 113 -77 199 -102 352 -102 316 0 577 193 600 445 6 65 4
81 -14 120 -39 81 -130 123 -335 157 -85 14 -140 29 -185 51 -156 75 -325 311
-404 563 -37 119 -50 228 -45 378 6 153 31 242 99 355 136 224 337 377 575
437 173 44 491 55 719 24 130 -18 108 -37 -71 -63 -167 -24 -258 -51 -379
-111 -132 -66 -233 -147 -328 -265 -121 -151 -147 -228 -147 -434 1 -244 53
-391 185 -521 117 -116 318 -205 463 -205 l60 0 11 44 c30 119 138 201 281
212 137 11 336 -43 546 -149 228 -115 534 -359 534 -427 0 -28 -48 -39 -220
-50 -265 -17 -408 -45 -538 -106 -147 -67 -275 -182 -330 -293 -22 -46 -26
-68 -26 -140 0 -101 11 -126 142 -332 96 -151 162 -273 262 -483 41 -89 80
-169 86 -179 9 -16 17 -15 114 18 169 57 243 68 404 62 223 -8 382 -59 828
-265 464 -215 674 -279 991 -302 208 -16 507 2 713 41 197 37 355 93 639 224
211 98 245 111 245 98 0 -21 -139 -190 -216 -261 -156 -146 -327 -245 -589
-341 -180 -66 -205 -78 -205 -95 0 -8 32 -57 71 -108 127 -166 158 -255 166
-473 6 -165 -10 -275 -62 -432 -63 -189 -154 -340 -280 -465 -73 -74 -126
-112 -255 -182 -119 -66 -121 -68 -132 -173 -18 -164 -36 -235 -82 -328 -104
-209 -262 -343 -509 -431 -55 -19 -74 -30 -64 -35 8 -5 84 -23 168 -41 l154
-33 470 1 c664 1 838 23 1217 153 580 201 1064 480 1558 901 165 140 227 187
236 177 4 -3 -18 -46 -49 -94 -150 -240 -201 -411 -201 -678 0 -199 37 -310
134 -405 66 -65 98 -77 230 -89 126 -12 1048 -36 1056 -28 3 2 -11 42 -30 88
-65 158 -68 180 -64 392 4 187 5 194 37 282 42 115 99 221 164 308 137 181
356 287 562 274 145 -10 256 -64 481 -233 l128 -97 105 110 c148 153 204 254
242 437 25 120 27 370 3 439 -23 68 -105 138 -369 317 -272 183 -350 244 -470
365 -267 268 -405 508 -477 832 -19 84 -22 129 -22 318 0 206 1 227 28 340 50
214 98 320 239 527 44 65 78 120 76 123 -3 2 -67 34 -143 70 -84 40 -136 70
-134 78 5 13 45 26 160 51 99 22 196 70 280 137 79 63 148 150 148 186 0 45
-121 276 -301 574 l-34 56 -82 -61 c-152 -114 -349 -209 -612 -296 -271 -90
-307 -95 -691 -95 -312 0 -342 2 -439 23 -241 53 -429 162 -641 372 -187 186
-262 336 -283 566 -11 127 -1 307 23 387 28 94 133 160 255 160 80 0 133 -17
209 -68 29 -19 60 -35 69 -35 27 0 75 49 93 95 61 161 -105 513 -329 695 -243
198 -598 212 -957 38 -88 -42 -117 -63 -181 -127 -83 -84 -145 -179 -192 -298
-26 -67 -31 -94 -35 -196 l-5 -119 -54 54 c-80 79 -124 172 -130 282 -10 145
31 275 110 360 32 33 39 36 91 36 l57 0 -6 48 c-12 81 -26 124 -66 202 -73
141 -201 266 -317 310 -188 71 -497 62 -710 -20 -358 -139 -577 -486 -559
-885 14 -313 149 -623 562 -1290 156 -252 169 -275 162 -281 -9 -9 -189 101
-295 180 -212 158 -412 377 -778 851 -560 727 -971 1098 -1521 1374 -348 174
-741 285 -1078 305 -201 12 -242 13 -370 6z m346 -570 c75 -5 187 -19 250 -29
118 -21 255 -58 246 -68 -3 -3 -68 2 -144 11 -263 30 -390 37 -527 26 -273
-22 -523 -88 -761 -200 -530 -249 -936 -688 -1103 -1193 -68 -204 -77 -264
-76 -497 0 -183 3 -218 27 -330 81 -377 241 -765 467 -1130 56 -91 104 -169
107 -175 12 -27 -129 132 -192 216 -329 440 -516 1038 -490 1564 37 744 607
1455 1369 1710 189 64 357 90 651 103 22 1 101 -3 176 -8z m1242 -398 c122
-73 319 -225 435 -336 135 -130 222 -239 502 -633 251 -352 342 -470 493 -640
198 -225 451 -444 637 -553 175 -102 299 -152 683 -271 75 -23 137 -46 137
-51 0 -37 -297 33 -562 133 -554 209 -789 418 -1293 1149 -253 366 -376 526
-548 710 -123 132 -340 336 -477 448 -58 47 -109 90 -115 95 -19 19 28 -3 108
-51z m2871 -1073 c255 -424 606 -775 976 -977 41 -23 90 -53 109 -67 l35 -25
-27 0 c-60 0 -265 107 -467 244 -220 149 -525 491 -642 721 -42 82 -108 257
-101 269 8 12 28 -17 117 -165z m2996 -1867 c0 -16 -223 -255 -435 -467 -489
-488 -826 -740 -1177 -879 -134 -53 -120 -30 53 84 230 152 410 300 804 660
321 295 533 473 669 564 69 46 86 53 86 38z m-9314 -288 c278 -399 599 -719
1224 -1219 277 -222 374 -304 366 -312 -12 -12 -341 212 -564 384 -366 283
-739 657 -949 948 -90 125 -234 368 -233 392 1 15 73 -73 156 -193z m4562
-104 c213 -70 486 -140 659 -169 179 -30 453 -45 718 -38 325 8 500 33 859
123 165 42 210 41 121 -1 -217 -101 -509 -175 -813 -206 -165 -17 -561 -6
-727 19 -268 42 -523 109 -750 199 -162 64 -300 132 -269 133 11 0 102 -27
202 -60z m4291 -1616 c-62 -65 -264 -242 -335 -294 -383 -284 -959 -562 -1294
-625 -47 -9 -95 -18 -107 -21 -13 -2 -23 0 -23 5 0 5 57 32 128 61 310 127
429 180 617 275 347 176 586 321 910 553 77 55 142 98 144 96 3 -3 -15 -25
-40 -50z m1175 -683 c7 -48 -9 -181 -35 -286 -25 -98 -92 -242 -147 -315 -53
-69 -274 -311 -280 -305 -2 2 16 30 41 62 112 146 217 334 301 539 51 125 96
272 96 315 0 42 16 35 24 -10z m-5204 -180 c0 -21 -126 -136 -206 -187 -199
-130 -467 -227 -804 -291 -122 -23 -549 -24 -675 -1 l-80 14 85 7 c47 4 175
14 285 23 568 43 846 124 1245 363 138 82 150 88 150 72z m-3002 -1595 c59
-29 215 -112 347 -183 643 -348 919 -537 1216 -833 186 -185 304 -336 432
-550 168 -282 413 -800 378 -800 -4 0 -58 98 -120 218 -246 475 -414 713 -721
1023 -356 359 -718 618 -1418 1015 -198 112 -273 163 -239 164 9 0 66 -24 125
-54z m2383 -818 c67 -48 276 -262 351 -358 142 -184 269 -404 342 -593 63
-160 37 -151 -55 21 -193 362 -260 456 -552 782 -163 181 -185 220 -86 148z
m-4320 -2398 c81 -485 247 -924 519 -1376 141 -232 275 -414 536 -729 l59 -70
-70 62 c-232 205 -537 569 -716 855 -74 118 -142 258 -214 442 -117 299 -173
502 -194 701 -13 121 -31 599 -30 780 l1 130 39 -305 c21 -168 53 -388 70
-490z m754 -254 c215 -338 332 -494 548 -729 50 -53 88 -100 85 -103 -7 -6
-131 92 -217 171 -141 132 -312 362 -446 605 -72 130 -135 264 -135 290 0 23
10 9 165 -234z m4598 -2658 c-32 -61 -206 -240 -303 -314 -98 -74 -262 -169
-350 -203 -75 -29 -216 -59 -227 -48 -12 13 16 28 149 82 271 108 353 162 585
388 90 88 166 157 169 154 3 -3 -7 -30 -23 -59z"/>
<path d="M32105 29234 c-16 -2 -70 -9 -120 -15 -259 -32 -666 -174 -975 -342
-214 -116 -331 -209 -629 -502 -322 -317 -516 -539 -833 -956 -135 -177 -280
-348 -400 -474 -197 -207 -528 -462 -528 -407 0 10 40 77 163 269 288 452 478
883 532 1211 27 162 18 298 -29 437 -64 191 -156 337 -261 418 -93 71 -241
132 -410 168 -93 21 -324 18 -415 -5 -126 -31 -227 -85 -320 -172 -133 -126
-210 -250 -210 -338 0 -54 23 -76 90 -87 28 -4 64 -18 81 -30 69 -49 104 -195
80 -335 -25 -149 -103 -325 -147 -332 -18 -3 -20 3 -19 75 0 146 -100 380
-211 488 -114 112 -346 226 -544 267 -420 87 -772 -161 -891 -628 -32 -126
-51 -314 -31 -314 5 0 74 23 153 50 270 96 337 79 425 -103 52 -109 67 -196
61 -351 -6 -149 -21 -208 -93 -346 -114 -221 -311 -401 -578 -530 -231 -111
-314 -125 -746 -125 -303 0 -332 2 -428 23 -191 43 -275 76 -669 266 -131 63
-247 116 -258 118 -24 4 -85 -82 -191 -268 -93 -165 -143 -274 -151 -330 -12
-90 76 -205 203 -266 37 -17 116 -39 200 -56 76 -15 139 -31 139 -37 0 -10
-109 -67 -217 -115 l-58 -25 85 -108 c101 -128 152 -213 218 -362 129 -288
147 -555 61 -906 -70 -286 -146 -431 -344 -655 -180 -204 -433 -417 -627 -530
-54 -31 -122 -70 -152 -88 -74 -43 -127 -99 -146 -154 -41 -121 -38 -438 5
-572 38 -115 85 -184 218 -322 l84 -86 120 79 c218 144 336 187 534 196 200 9
284 -26 447 -186 228 -223 274 -347 265 -713 -5 -191 -11 -218 -72 -360 -9
-21 -16 -42 -16 -49 0 -8 143 -9 528 -6 576 5 610 8 714 64 59 32 97 80 130
162 20 51 22 73 22 231 0 243 -26 365 -139 650 -24 63 -43 115 -41 117 2 2 75
-53 162 -123 655 -523 1192 -805 1844 -969 220 -55 318 -72 490 -85 174 -13
710 -13 865 0 114 10 404 63 433 79 9 5 -20 20 -80 41 -192 68 -342 165 -443
288 -102 123 -154 252 -156 384 -1 46 -4 109 -8 142 l-6 58 -87 48 c-214 118
-410 321 -517 536 -137 273 -146 627 -24 874 29 59 58 95 131 168 52 51 93 94
91 96 -2 2 -55 18 -117 35 -311 86 -606 246 -794 431 -70 69 -94 101 -124 163
-20 43 -34 81 -30 84 7 8 47 -12 206 -102 239 -136 488 -219 836 -282 135 -24
173 -26 399 -27 225 0 260 2 355 23 241 53 382 105 705 259 359 170 450 211
558 247 154 51 276 69 432 62 128 -5 151 -10 382 -74 77 -22 85 -16 108 80 32
131 85 249 225 502 134 241 198 415 186 503 -18 136 -191 293 -399 362 -101
34 -223 55 -437 75 -268 25 -301 36 -266 90 46 71 266 248 423 342 208 124
363 173 569 180 245 9 338 -38 359 -181 10 -73 13 -76 59 -76 51 0 170 48 298
119 189 104 305 221 350 351 20 56 23 85 23 210 0 171 -15 240 -80 375 -76
158 -210 293 -375 379 -138 71 -277 109 -514 137 -55 7 -92 15 -85 19 23 12
264 41 394 47 480 22 851 -161 1015 -502 49 -102 69 -181 80 -318 28 -338 -77
-644 -285 -835 -89 -82 -174 -123 -335 -165 -234 -61 -291 -90 -331 -170 -17
-32 -20 -54 -17 -106 5 -97 43 -168 142 -267 130 -130 271 -187 461 -187 122
-1 179 15 337 89 64 31 125 54 135 52 60 -11 -306 -293 -453 -348 -64 -23
-188 -36 -499 -50 -280 -13 -317 -19 -397 -62 -180 -96 -410 -407 -425 -576
-14 -152 128 -377 329 -521 26 -19 45 -38 42 -42 -3 -5 -25 -9 -50 -9 -137 0
-305 -65 -404 -157 -102 -94 -150 -203 -150 -338 0 -198 124 -376 334 -480
109 -53 216 -79 391 -95 71 -7 141 -17 155 -22 l25 -10 -25 -11 c-16 -8 -101
-11 -240 -11 -201 0 -221 2 -315 27 -229 62 -416 185 -517 341 -45 71 -63 127
-83 261 -9 55 -22 125 -31 155 -51 179 -196 314 -391 364 -47 12 -114 16 -290
16 l-229 0 -100 -39 c-54 -21 -184 -78 -289 -126 -327 -150 -391 -164 -849
-190 -148 -8 -273 -18 -277 -22 -4 -5 -44 -53 -89 -108 -141 -174 -167 -258
-154 -494 17 -316 92 -486 324 -725 120 -124 232 -217 337 -280 73 -44 78 -54
88 -216 9 -143 20 -191 67 -289 71 -149 228 -281 378 -318 37 -10 151 -16 355
-19 165 -3 307 -8 315 -10 8 -3 -73 -50 -180 -105 -424 -218 -587 -332 -805
-561 -132 -138 -221 -264 -299 -423 -119 -241 -150 -385 -143 -665 3 -158 7
-194 26 -247 27 -74 80 -158 144 -229 26 -29 47 -55 47 -58 0 -3 -38 -57 -84
-119 -260 -349 -418 -674 -516 -1062 -85 -335 -114 -595 -113 -1025 0 -325 13
-532 54 -850 75 -589 233 -1014 531 -1433 339 -477 708 -709 1407 -887 358
-90 428 -118 516 -201 156 -147 149 -414 -11 -475 -39 -15 -69 -16 -225 -11
-206 8 -203 9 -177 -73 43 -135 193 -324 314 -396 129 -76 171 -88 329 -88
106 0 157 4 210 18 303 81 574 313 696 596 70 162 84 240 83 450 -1 219 -14
284 -95 450 -73 152 -121 212 -347 442 -127 129 -200 209 -191 212 8 2 47 9
87 15 86 13 120 29 156 71 26 32 31 54 26 120 -9 126 -153 311 -320 410 -139
83 -265 114 -528 130 -292 18 -447 30 -478 39 -28 8 -26 9 55 50 102 52 168
115 209 202 39 83 52 149 52 259 0 104 -14 181 -39 212 -16 19 -32 22 -147 30
-384 24 -408 29 -535 114 -195 130 -323 311 -373 531 -25 110 -20 378 10 511
4 21 7 22 21 10 9 -7 41 -51 72 -98 79 -122 201 -242 286 -282 183 -85 417
-27 609 152 92 85 159 207 191 343 8 34 19 141 25 237 16 260 33 356 66 367 6
2 16 -20 22 -52 28 -138 219 -431 355 -543 57 -46 136 -87 198 -101 68 -16
260 -13 347 5 344 71 638 302 760 596 57 138 66 319 21 452 -36 105 -48 113
-219 131 -80 8 -146 21 -173 33 -65 29 -122 85 -157 154 -29 59 -30 66 -30
192 0 101 5 148 20 204 44 157 164 391 301 584 93 131 410 480 423 467 3 -3
16 -71 30 -151 48 -276 129 -417 281 -492 212 -103 414 -27 710 269 239 238
372 471 441 773 19 79 31 116 36 105 19 -51 -3 -262 -42 -387 -94 -301 -352
-609 -650 -776 -115 -64 -110 -41 -67 -257 53 -273 61 -359 54 -653 -9 -405
-45 -590 -162 -825 -159 -320 -452 -606 -738 -719 -145 -57 -237 -55 -440 10
-134 44 -168 42 -274 -12 -142 -72 -235 -193 -268 -349 -19 -90 -19 -224 0
-317 30 -147 146 -332 268 -429 99 -80 171 -99 457 -125 102 -9 187 -18 189
-20 2 -1 -39 -63 -91 -136 -161 -226 -224 -351 -259 -523 -39 -187 -34 -515
11 -702 25 -105 77 -233 136 -336 63 -110 165 -267 173 -267 3 0 24 44 45 98
116 286 207 438 362 601 89 94 169 164 149 130 -5 -7 -64 -86 -130 -174 -232
-307 -317 -484 -346 -725 -21 -174 15 -388 89 -536 102 -203 259 -339 467
-404 137 -43 343 -38 489 12 297 102 616 437 616 647 0 67 -19 86 -113 115
-90 28 -165 81 -226 160 -64 83 -75 121 -75 276 0 122 2 143 27 215 50 143
119 251 456 710 361 492 516 734 686 1070 237 470 381 931 454 1455 37 270 44
418 38 878 -4 377 -8 456 -26 577 -42 274 -92 445 -243 828 -49 126 -87 231
-84 234 24 24 216 -363 326 -657 96 -256 173 -388 258 -437 41 -25 57 -28 132
-28 127 0 208 41 285 146 100 136 153 305 162 515 23 542 -172 999 -622 1463
-195 200 -291 278 -592 478 -243 160 -299 204 -240 188 72 -20 341 -168 508
-278 l26 -18 56 114 c45 92 69 128 124 184 117 120 104 117 539 123 l371 5 43
30 c51 35 152 149 179 203 55 108 68 282 31 425 -20 80 -89 228 -143 306 -71
105 -188 206 -303 264 -132 67 -265 93 -511 103 -90 4 -162 8 -160 10 1 1 79
17 172 34 236 43 328 67 412 105 122 56 200 146 251 287 22 62 26 91 26 193 1
142 -11 197 -68 320 -86 182 -255 346 -421 407 -84 31 -278 37 -396 13 -332
-68 -559 -236 -813 -604 -144 -209 -312 -397 -845 -951 -368 -382 -517 -548
-641 -711 -111 -147 -108 -144 -115 -137 -17 17 157 306 303 501 117 158 243
306 441 522 472 514 726 846 939 1230 256 460 454 1052 517 1539 52 401 35
1061 -36 1409 -84 413 -319 910 -595 1257 -96 120 -341 361 -459 451 -419 319
-858 500 -1366 564 -117 15 -699 29 -774 19z m592 -569 c488 -64 875 -257
1231 -614 416 -418 577 -816 559 -1381 -12 -359 -96 -688 -256 -1004 -119
-234 -381 -609 -407 -584 -8 9 18 56 118 212 245 386 411 836 459 1249 15 127
7 355 -16 462 -72 342 -261 679 -533 952 -340 342 -765 562 -1237 639 -153 25
-620 26 -775 1 -58 -9 -121 -19 -140 -22 -35 -5 -34 -5 10 15 68 32 127 49
236 70 133 24 575 27 751 5z m-1527 -313 c0 -5 -87 -78 -192 -163 -353 -281
-521 -464 -818 -887 -292 -414 -345 -488 -441 -607 -341 -423 -675 -673 -1074
-804 -187 -61 -495 -125 -442 -91 9 6 108 42 220 80 305 103 404 149 599 277
143 93 296 223 443 374 200 206 361 409 694 878 273 382 383 508 581 662 122
95 409 289 427 289 2 0 3 -4 3 -8z m-2895 -1073 c-101 -261 -274 -506 -515
-731 -160 -148 -277 -230 -455 -318 -270 -133 -272 -122 -7 54 243 161 468
363 658 591 111 134 154 198 304 455 56 95 63 72 15 -51z m-2967 -2016 c137
-85 322 -240 712 -598 276 -252 463 -413 582 -499 54 -39 126 -91 161 -116 54
-39 59 -45 39 -48 -34 -5 -268 112 -407 205 -220 146 -378 282 -736 635 -246
243 -439 444 -439 457 0 17 9 14 88 -36z m9352 -9 c-58 -135 -229 -398 -386
-594 -59 -74 -189 -216 -289 -316 -262 -262 -427 -396 -780 -629 -361 -238
-361 -232 3 59 391 312 540 443 803 706 271 270 315 323 489 580 152 224 163
239 172 240 4 0 -2 -21 -12 -46z m-4570 -279 c-14 -17 -185 -101 -295 -145
-155 -62 -414 -124 -645 -155 -166 -23 -487 -30 -655 -16 -241 21 -460 65
-680 136 -115 38 -247 96 -229 102 6 2 81 -14 166 -36 294 -76 542 -108 908
-117 245 -7 468 4 660 32 199 29 478 106 695 193 62 25 93 28 75 6z m-4077
-1848 c497 -331 709 -441 1302 -669 253 -98 335 -134 335 -148 0 -13 -2 -13
-95 9 -195 47 -693 224 -889 316 -177 83 -501 293 -749 486 -123 96 -267 230
-267 249 0 6 35 -15 77 -46 42 -31 171 -120 286 -197z m-1494 -542 c105 -393
172 -531 385 -785 53 -63 96 -118 96 -122 0 -20 -70 31 -140 101 -156 157
-297 413 -366 666 -27 98 -46 319 -26 300 6 -6 29 -78 51 -160z m5516 -305
c322 -159 536 -208 1065 -245 302 -21 372 -27 368 -30 -3 -4 -276 -29 -428
-41 -104 -7 -323 10 -450 37 -145 30 -318 92 -500 180 -225 109 -400 228 -400
271 0 5 42 -13 93 -42 50 -28 164 -86 252 -130z m2815 -1364 c-8 -8 -130 -78
-270 -156 -510 -284 -742 -435 -1055 -686 -311 -249 -561 -508 -777 -805 -114
-156 -195 -296 -333 -576 -119 -240 -154 -301 -139 -236 38 159 296 678 454
913 221 329 592 700 919 919 220 148 861 495 1117 606 88 37 105 42 84 21z
m-2493 -838 c-8 -13 -75 -88 -148 -168 -297 -324 -380 -440 -567 -795 -105
-200 -121 -229 -128 -222 -7 7 54 162 130 327 152 331 266 489 521 720 172
155 234 200 192 138z m4363 -2060 c0 -117 -5 -267 -11 -333 -63 -743 -331
-1323 -883 -1918 -139 -150 -268 -267 -274 -249 -5 15 25 56 130 179 249 290
436 569 599 894 169 339 284 699 364 1144 21 115 30 194 51 433 3 34 10 62 15
62 5 0 9 -90 9 -212z m-685 -430 c-27 -83 -155 -326 -238 -450 -132 -197 -276
-365 -413 -482 -75 -63 -134 -103 -134 -89 0 4 52 67 116 138 256 285 358 423
526 705 121 203 148 244 155 236 3 -2 -3 -29 -12 -58z m-4604 -2973 c331 -275
500 -365 824 -435 145 -32 125 -38 -50 -15 -270 36 -565 176 -768 365 -77 72
-147 158 -147 180 0 17 35 -7 141 -95z"/>
<path d="M19640 27063 c-626 -19 -1433 -99 -2065 -204 -338 -56 -444 -87 -523
-154 -35 -29 -72 -99 -72 -136 0 -88 51 -147 181 -210 113 -55 117 -65 54
-146 -38 -50 -48 -71 -57 -127 -12 -74 -1 -170 27 -229 27 -57 51 -62 297 -60
221 2 376 13 1153 83 927 83 1149 94 1720 87 520 -6 545 -8 2060 -128 454 -36
765 -47 846 -30 61 13 112 45 141 88 13 21 18 47 18 106 0 89 -21 142 -91 233
-50 65 -51 64 74 136 154 88 192 143 166 236 -26 92 -123 159 -289 200 -339
83 -1290 192 -2030 232 -477 26 -1190 36 -1610 23z m857 -413 c105 -37 186
-148 153 -210 -15 -28 -97 -65 -180 -81 -89 -17 -321 -17 -390 0 -118 29 -199
94 -184 146 21 68 145 139 292 165 79 15 239 4 309 -20z m1028 -67 c57 -19
138 -94 149 -137 9 -35 -12 -69 -57 -93 -24 -14 -55 -18 -127 -18 -83 0 -101
3 -139 25 -58 33 -86 71 -86 120 0 97 129 148 260 103z m-2263 -20 c57 -55 23
-127 -85 -182 -58 -30 -80 -35 -156 -39 -73 -4 -96 -1 -134 16 -60 27 -61 48
-5 108 77 84 165 123 277 124 68 0 78 -3 103 -27z m-1084 -121 c12 -7 22 -18
22 -25 0 -20 -118 -123 -179 -156 -65 -34 -107 -39 -170 -16 -64 22 -241 107
-241 115 0 10 133 67 196 85 62 18 337 15 372 -3z m4515 3 c104 -18 188 -48
213 -76 19 -21 19 -21 -21 -55 -106 -89 -215 -110 -313 -61 -55 28 -153 99
-185 134 -22 25 -13 51 22 59 14 3 31 7 36 9 27 9 172 3 248 -10z"/>
<path d="M19275 25765 c-181 -8 -566 -23 -855 -35 -921 -36 -1182 -53 -1282
-84 -99 -29 -263 -168 -374 -315 -113 -150 -225 -404 -255 -578 -19 -106 -7
-325 26 -467 79 -348 209 -591 444 -827 423 -425 1082 -727 2331 -1067 714
-195 832 -209 1240 -142 1155 191 2250 574 2786 976 114 85 325 294 404 399
132 177 226 360 272 528 21 76 22 103 22 347 0 229 -3 278 -21 360 -47 217
-131 370 -292 531 -163 162 -302 245 -480 285 -43 9 -173 18 -376 24 -367 11
-881 35 -1230 57 -352 21 -1900 27 -2360 8z m-1401 -357 c-4 -7 -26 -40 -49
-73 -100 -143 -184 -320 -248 -520 -49 -152 -61 -253 -54 -470 4 -164 8 -192
40 -315 44 -173 95 -308 164 -439 71 -136 130 -220 252 -361 98 -112 111 -130
92 -130 -16 0 -127 88 -234 185 -289 262 -465 561 -538 918 -31 154 -29 396 5
529 72 283 237 506 480 652 60 36 104 48 90 24z m4896 -19 c214 -114 382 -350
468 -659 25 -89 27 -108 26 -295 0 -192 -1 -205 -31 -316 -115 -423 -343 -749
-685 -978 -43 -28 -78 -49 -78 -46 0 3 35 46 79 95 43 49 103 122 133 162 393
527 464 1319 163 1818 -25 41 -70 110 -100 153 -77 109 -73 119 25 66z m-3849
-84 c-86 -103 -145 -203 -190 -320 -154 -400 -174 -918 -48 -1290 39 -117 122
-302 177 -396 139 -238 145 -249 118 -249 -20 0 -206 197 -289 306 -125 164
-184 278 -247 474 -57 177 -67 246 -66 460 0 170 3 207 23 290 64 256 178 456
370 648 98 97 204 179 209 162 2 -6 -24 -44 -57 -85z m2864 -48 c129 -131 207
-238 278 -382 82 -167 114 -294 123 -505 16 -359 -96 -731 -316 -1042 -105
-149 -313 -349 -350 -336 -7 2 26 54 72 116 283 381 383 746 358 1304 -16 357
-89 600 -254 853 -36 55 -66 103 -66 108 0 29 52 -10 155 -116z m-2035 -68 c0
-22 -13 -93 -29 -157 -72 -284 -94 -498 -95 -897 -1 -292 0 -304 27 -434 51
-242 149 -537 236 -709 17 -34 27 -62 22 -62 -23 0 -141 146 -190 234 -102
183 -202 468 -237 671 -22 123 -15 597 10 728 49 258 143 533 218 640 27 38
38 34 38 -14z m1148 -7 c88 -144 177 -449 203 -700 15 -150 6 -535 -15 -662
-40 -228 -107 -434 -202 -620 -153 -300 -172 -283 -67 60 109 360 141 545 149
865 10 357 -13 568 -96 926 -17 70 -30 138 -30 153 0 41 25 31 58 -22z"/>
<path d="M18005 22600 c-3 -6 -11 -81 -16 -168 -5 -86 -16 -197 -25 -247 -62
-368 -308 -644 -579 -648 -61 -1 -79 3 -145 35 -41 20 -124 67 -185 103 -230
140 -349 186 -475 186 -117 1 -178 -27 -270 -120 -53 -53 -86 -98 -113 -151
-62 -125 -72 -179 -72 -390 0 -209 11 -263 86 -412 l39 -78 460 0 c253 0 460
3 460 6 0 3 -42 72 -93 153 -101 158 -267 435 -267 446 0 3 54 -57 120 -134
351 -410 770 -780 1220 -1073 194 -127 333 -206 520 -296 85 -41 209 -100 275
-132 147 -71 191 -109 308 -264 108 -145 273 -311 380 -384 42 -29 135 -80
205 -112 70 -31 153 -70 186 -85 32 -15 102 -38 155 -52 117 -30 152 -27 313
27 328 109 645 337 844 606 31 44 89 111 128 150 69 69 80 76 349 208 569 278
761 400 1120 713 174 152 532 509 640 637 51 60 107 126 126 145 l33 36 -28
-50 c-43 -78 -211 -351 -276 -447 -32 -48 -58 -90 -58 -93 0 -9 792 -5 859 5
77 11 108 37 151 125 49 99 64 175 64 315 -1 233 -72 425 -209 569 -120 126
-216 164 -343 137 -91 -19 -151 -47 -332 -156 -85 -51 -200 -115 -255 -142
-118 -58 -125 -58 -264 8 -182 86 -272 173 -352 339 -61 127 -81 234 -95 500
-8 145 -15 175 -42 175 -11 0 -104 -27 -208 -61 -515 -165 -997 -285 -1794
-447 -171 -35 -186 -39 -197 -63 -7 -14 -17 -97 -23 -185 -8 -134 -26 -1051
-31 -1654 -2 -154 -2 -159 -10 -75 -9 107 -59 1723 -59 1923 l0 42 -90 0
c-266 0 -869 145 -1685 405 -299 95 -427 135 -437 135 -4 0 -10 -5 -13 -10z"/>
<path d="M12540 17723 c0 -3084 15 -6302 30 -6723 16 -429 36 -613 105 -958
231 -1149 706 -2055 1485 -2832 573 -573 1094 -911 1883 -1224 478 -190 882
-319 1902 -606 554 -156 762 -219 950 -285 477 -169 756 -333 1000 -586 154
-161 264 -307 355 -472 l43 -79 56 109 c78 150 149 248 265 371 294 307 643
523 1099 678 210 71 434 136 962 279 560 151 958 266 1230 355 1175 384 1836
773 2591 1525 278 277 396 420 587 711 415 632 708 1384 831 2134 41 246 56
431 66 790 13 463 29 4015 31 7015 l2 2500 -2426 3 -2425 2 -134 -116 c-404
-353 -630 -495 -1220 -769 -97 -45 -206 -103 -241 -128 -62 -44 -79 -64 -202
-232 -154 -211 -380 -384 -701 -536 -281 -133 -392 -146 -599 -67 -218 84
-266 105 -382 168 -210 114 -378 270 -534 497 -113 163 -136 185 -231 223
-179 71 -494 225 -723 353 -191 107 -432 285 -696 513 l-102 89 -2429 3 -2428
3 0 -2708z m2780 1166 c25 -5 68 -13 95 -18 28 -5 64 -15 80 -22 17 -7 33 -12
37 -11 9 2 142 -88 146 -100 2 -4 9 -14 15 -21 22 -23 57 -76 57 -85 0 -5 10
-18 23 -29 23 -22 48 -30 182 -58 44 -9 98 -21 120 -27 22 -6 50 -10 63 -10
12 0 22 -4 22 -10 0 -5 5 -6 10 -3 6 4 18 1 27 -7 9 -7 19 -12 22 -11 16 6 84
-20 108 -41 25 -21 28 -31 28 -83 0 -49 -7 -72 -45 -148 -24 -49 -57 -103 -72
-120 -15 -16 -28 -34 -28 -40 0 -13 -105 -125 -117 -125 -5 0 -14 -5 -21 -12
-6 -6 -48 -24 -94 -39 -90 -31 -168 -36 -259 -19 -72 14 -140 14 -183 0 -49
-16 -70 -53 -69 -120 1 -108 11 -190 23 -205 7 -8 10 -15 7 -15 -10 0 39 -107
81 -175 24 -38 48 -79 55 -90 7 -11 14 -22 17 -25 15 -14 40 -61 40 -75 0 -8
5 -15 10 -15 6 0 10 -7 10 -16 0 -9 6 -30 14 -47 19 -42 57 -168 60 -202 2
-16 16 -58 28 -82 10 -21 12 -20 50 25 22 26 49 56 59 67 24 25 95 116 132
168 16 22 34 46 40 52 7 7 24 28 38 46 15 19 48 60 73 91 25 32 46 62 46 66 0
16 94 98 133 115 41 20 144 30 153 16 3 -5 16 -9 29 -9 13 0 25 -6 28 -12 3
-10 9 -10 26 0 11 6 29 12 39 12 10 0 22 3 25 7 34 34 182 -24 260 -103 26
-26 47 -51 47 -56 0 -5 6 -15 13 -22 34 -36 75 -85 97 -116 13 -19 30 -39 37
-43 7 -4 13 -13 13 -18 0 -11 15 -32 83 -117 35 -44 54 -67 122 -149 15 -18
33 -33 41 -33 9 0 13 4 10 8 -3 5 2 21 10 37 8 15 12 36 9 47 -4 10 -2 18 3
18 6 0 10 17 9 37 -1 20 4 38 11 41 7 2 12 17 12 33 0 16 4 29 10 29 5 0 7 7
4 15 -4 8 -1 15 5 15 6 0 11 9 11 19 0 17 36 97 50 111 3 3 12 19 20 35 8 17
21 36 28 43 7 8 20 28 29 45 9 18 19 34 22 37 14 11 86 169 82 183 0 4 4 17
10 28 6 11 12 70 13 130 3 99 1 111 -18 133 -40 45 -80 53 -211 42 -46 -4 -65
-7 -136 -22 -84 -17 -334 106 -361 177 -4 11 -12 19 -17 19 -10 0 -17 11 -86
136 -42 79 -68 169 -61 213 6 41 51 91 82 91 13 0 25 4 28 9 5 8 81 26 98 23
3 -1 28 5 55 12 26 8 66 17 88 22 126 24 190 44 208 67 10 12 25 30 33 40 7 9
14 22 14 28 0 14 120 129 135 129 7 0 18 7 25 15 7 8 19 15 26 15 8 0 33 9 57
19 69 32 217 53 357 49 170 -3 298 -33 367 -84 17 -13 36 -24 40 -24 14 0 99
-92 115 -125 8 -16 25 -48 37 -69 49 -86 103 -198 97 -203 -3 -3 2 -19 10 -36
10 -18 18 -64 20 -114 3 -73 -1 -94 -27 -168 -32 -93 -32 -80 -13 -390 4 -55
7 -112 8 -127 0 -16 5 -28 10 -28 4 0 6 -7 3 -15 -4 -8 -1 -40 5 -72 5 -32 11
-71 13 -88 1 -16 15 -77 30 -135 15 -58 29 -112 29 -120 1 -9 5 -20 8 -25 13
-23 30 -133 31 -204 0 -42 4 -82 10 -88 5 -7 6 -13 1 -13 -14 0 -10 -288 5
-355 8 -33 14 -67 13 -75 0 -8 6 -37 13 -65 8 -27 16 -68 19 -90 7 -65 26
-169 33 -185 3 -8 6 -18 5 -22 -1 -3 5 -28 12 -55 8 -26 14 -55 14 -63 1 -21
8 -62 15 -80 3 -8 8 -28 10 -45 3 -16 17 -74 31 -129 14 -54 25 -101 24 -105
-2 -9 14 -85 20 -96 3 -5 7 -19 8 -32 3 -29 44 -223 52 -243 3 -8 6 -18 6 -22
1 -3 4 -10 9 -14 4 -4 7 -13 7 -21 0 -32 99 -127 165 -158 63 -30 120 -32 160
-5 17 12 45 28 63 37 35 16 120 97 158 149 19 26 43 85 48 117 1 7 5 17 8 23
7 11 2 167 -7 219 -3 17 -7 60 -9 96 -4 62 -3 67 20 77 38 18 49 9 123 -98 35
-52 71 -154 71 -205 0 -25 4 -45 8 -45 5 0 8 -47 8 -105 -1 -58 -3 -105 -6
-105 -3 0 -6 -19 -7 -43 -1 -23 -12 -64 -24 -92 -13 -27 -24 -56 -25 -63 -1
-8 -10 -22 -18 -31 -9 -10 -16 -22 -16 -28 0 -5 -9 -18 -20 -28 -11 -10 -20
-23 -20 -30 0 -19 -110 -113 -183 -156 -39 -23 -91 -45 -125 -51 -31 -6 -64
-13 -72 -15 -18 -6 -142 -4 -189 3 -19 3 -44 12 -57 20 -21 15 -23 13 -38 -34
-9 -27 -18 -58 -20 -69 -6 -28 -30 -96 -60 -170 -14 -33 -28 -74 -31 -90 -9
-47 -41 -162 -46 -168 -3 -3 -2 -33 3 -68 10 -65 41 -139 94 -223 43 -66 64
-119 64 -158 0 -39 -18 -106 -34 -126 -6 -8 -18 -33 -25 -55 -8 -22 -26 -56
-41 -75 -14 -19 -34 -53 -44 -75 -10 -22 -35 -75 -57 -118 -21 -43 -39 -84
-39 -93 0 -8 -7 -26 -16 -39 -9 -13 -13 -29 -9 -35 3 -5 2 -10 -3 -10 -5 0
-17 -18 -27 -40 -24 -54 -122 -155 -165 -170 -60 -22 -130 -30 -265 -31 -159
-1 -202 10 -227 61 -52 103 20 287 123 320 24 7 49 17 55 22 6 4 28 10 50 12
57 5 85 19 129 64 73 73 110 175 110 302 0 103 -18 146 -99 237 -91 104 -179
227 -241 335 l-23 41 -16 -37 c-9 -21 -14 -42 -11 -46 3 -5 0 -12 -6 -16 -14
-8 -4 -109 16 -167 8 -23 15 -50 15 -59 0 -10 4 -18 8 -18 10 0 13 -18 13 -88
-1 -55 -23 -109 -60 -149 -12 -12 -21 -24 -21 -27 0 -6 -75 -90 -107 -122 -13
-12 -23 -26 -23 -33 0 -6 -4 -11 -9 -11 -4 0 -21 -19 -36 -41 -15 -23 -52 -67
-83 -98 -32 -32 -81 -85 -111 -120 -29 -34 -70 -73 -90 -85 -65 -41 -167 -69
-255 -69 -108 -1 -166 4 -166 15 0 4 -6 8 -14 8 -24 0 -65 26 -88 55 -16 21
-22 40 -20 73 2 46 37 132 69 168 24 26 84 63 111 67 12 2 25 6 28 10 4 4 31
7 59 7 80 0 141 26 198 84 60 62 77 81 77 88 0 4 16 34 35 68 28 49 35 74 37
119 0 31 -2 65 -5 76 -17 56 -28 87 -63 165 -34 78 -52 130 -89 250 -7 25 -14
85 -15 134 -1 49 -3 92 -5 95 -2 4 1 26 6 51 5 25 11 58 14 74 12 77 57 182
121 282 43 66 50 76 132 161 34 36 62 69 62 74 0 4 8 14 18 21 23 16 47 58 44
76 -2 6 2 12 7 12 7 0 7 9 0 28 -14 36 -142 225 -230 337 -39 50 -101 137
-139 195 -54 82 -77 109 -107 123 -45 20 -70 36 -97 59 -10 10 -35 29 -55 42
-35 23 -38 24 -96 11 -33 -7 -80 -22 -105 -32 -25 -11 -56 -23 -71 -26 -32 -8
-98 -74 -101 -101 -1 -12 -2 -30 -3 -41 -3 -45 -18 -141 -23 -150 -4 -5 -8
-19 -10 -30 -4 -30 -39 -99 -61 -121 -30 -29 -51 -45 -51 -39 0 3 -15 -2 -32
-12 -18 -9 -37 -18 -43 -18 -5 -1 -12 -3 -15 -5 -5 -3 -18 -5 -80 -13 -19 -2
-46 1 -60 8 -31 16 -73 97 -74 142 -1 18 -4 33 -7 33 -12 0 -1 155 15 210 31
113 89 264 116 304 37 54 88 106 145 147 25 18 45 36 45 39 0 4 17 19 38 33
86 58 124 113 91 132 -5 4 -14 17 -20 28 -13 32 -39 72 -69 106 -8 9 -28 44
-45 76 -25 51 -72 123 -145 229 -32 45 -101 106 -144 126 -25 11 -48 25 -51
30 -7 11 -65 -18 -65 -32 0 -4 -9 -8 -20 -8 -27 0 -97 -65 -122 -114 -22 -43
-52 -88 -80 -120 -10 -11 -18 -24 -18 -29 0 -5 -13 -26 -30 -47 -16 -21 -30
-42 -30 -47 0 -4 -10 -19 -23 -33 -13 -14 -36 -50 -53 -80 -16 -30 -35 -61
-41 -68 -36 -38 -2 -94 117 -192 153 -124 216 -210 265 -355 59 -175 71 -302
40 -408 -21 -69 -43 -94 -96 -107 -84 -21 -232 34 -275 102 -33 52 -41 78 -60
208 -22 144 -54 192 -149 223 -231 75 -216 74 -265 22 -14 -15 -53 -42 -86
-61 -64 -36 -88 -63 -197 -224 -90 -133 -128 -185 -137 -188 -5 -2 -23 -27
-41 -55 -18 -29 -47 -70 -64 -92 -63 -79 -81 -150 -52 -202 10 -18 130 -154
189 -215 63 -64 147 -222 166 -313 43 -197 43 -214 0 -410 -9 -42 -66 -200
-98 -270 -34 -76 -41 -94 -46 -115 -9 -42 -11 -104 -2 -120 4 -8 11 -31 16
-50 5 -21 17 -39 30 -45 14 -6 20 -16 17 -30 -6 -25 96 -150 140 -173 51 -26
59 -28 113 -27 28 0 52 -3 52 -7 0 -5 9 -8 20 -8 64 0 182 -92 195 -152 4 -15
10 -28 14 -28 5 0 11 -21 15 -46 5 -36 1 -53 -16 -83 -32 -56 -91 -75 -237
-78 -63 -1 -120 1 -125 5 -6 3 -15 7 -21 7 -38 4 -96 19 -101 26 -3 5 -14 9
-25 9 -22 0 -37 15 -184 175 -91 99 -219 251 -285 339 -14 18 -38 50 -54 70
-40 50 -44 115 -16 221 36 135 39 164 24 244 -7 41 -16 76 -18 79 -6 5 -76
-103 -76 -117 0 -5 -3 -11 -7 -13 -5 -1 -30 -36 -57 -76 -27 -40 -71 -96 -99
-125 -57 -60 -118 -141 -133 -177 -11 -25 -11 -108 0 -185 8 -57 71 -176 114
-217 39 -37 110 -68 154 -68 15 0 30 -4 33 -10 3 -5 13 -10 21 -10 24 0 83
-50 116 -98 37 -54 51 -117 42 -194 l-6 -57 -46 -15 c-25 -9 -66 -16 -91 -16
-25 0 -77 -5 -116 -11 -69 -10 -93 -7 -212 24 -24 6 -43 15 -43 19 0 4 -6 8
-13 8 -23 0 -82 63 -118 125 -61 104 -79 142 -79 163 0 11 -4 22 -9 24 -5 2
-32 55 -61 118 -29 63 -56 117 -60 120 -14 9 -89 177 -99 221 -18 77 -14 100
29 159 94 130 142 278 119 365 -6 22 -12 45 -13 50 -7 35 -38 120 -62 168 -8
16 -14 35 -14 43 0 8 -4 22 -9 32 -11 21 -51 153 -51 168 0 5 -6 18 -13 27
-12 17 -14 17 -47 0 -50 -25 -187 -30 -229 -9 -17 9 -36 14 -40 11 -5 -3 -11
-1 -13 4 -1 5 -17 11 -34 14 -79 12 -227 105 -279 174 -16 21 -31 40 -34 43
-21 19 -84 149 -101 210 -7 25 -14 63 -16 85 -6 70 -2 230 6 230 1 0 3 9 4 20
7 50 36 136 54 162 10 15 22 38 26 50 11 34 86 103 111 103 15 0 25 -8 29 -22
8 -31 8 -103 -1 -111 -6 -7 -8 -20 -16 -127 -5 -63 8 -174 27 -225 23 -60 70
-117 141 -170 22 -17 48 -37 58 -46 21 -19 109 -49 144 -49 46 0 193 99 193
130 0 5 7 16 16 24 9 9 17 22 18 29 2 6 8 25 15 40 6 16 9 32 6 37 -3 5 -1 11
4 14 8 5 20 58 27 121 5 41 36 181 44 200 9 19 47 193 55 247 2 15 9 36 14 47
6 11 13 39 16 63 8 60 33 186 47 228 6 19 12 45 14 57 1 13 6 42 10 65 4 24 8
51 8 60 1 9 4 20 9 24 4 4 7 27 7 51 0 25 5 53 10 63 11 21 20 115 20 205 -3
264 -2 290 14 400 4 22 13 58 20 80 26 76 63 230 71 300 1 11 3 20 4 20 1 0 4
14 6 30 2 17 6 50 10 75 9 70 19 199 19 263 1 31 4 57 9 57 4 0 5 23 3 50 -2
28 0 50 4 50 3 0 5 15 3 33 -4 46 -8 59 -21 84 -17 31 -42 156 -42 211 0 26 8
74 19 107 20 65 71 178 84 183 4 2 7 15 7 28 0 13 4 24 8 24 4 0 13 12 20 28
26 57 43 80 97 130 49 46 101 81 122 83 5 0 13 5 20 10 6 6 24 12 38 15 15 3
40 11 56 19 15 8 34 12 42 10 7 -3 24 -2 38 4 31 12 251 12 309 0z m7463 -971
c290 -583 664 -1352 877 -1801 l128 -269 -103 -212 c-155 -321 -952 -1907
-1055 -2101 -50 -93 -99 -181 -109 -194 l-19 -24 -41 74 c-70 123 -805 1601
-968 1944 -204 433 -236 510 -230 550 11 64 137 341 547 1190 117 242 282 586
367 765 292 612 301 630 316 630 10 0 111 -193 290 -552z m3046 265 c465 -916
1121 -2259 1121 -2297 0 -22 -22 -68 -305 -646 -477 -972 -540 -1099 -753
-1528 l-210 -423 -190 373 c-263 515 -1030 2073 -1071 2175 -12 29 -9 39 32
135 124 284 503 1071 876 1818 277 556 337 670 351 670 5 0 72 -125 149 -277z
m-9119 -5590 c25 -59 31 -87 27 -119 -3 -34 -1 -43 13 -47 22 -6 62 -64 148
-217 192 -344 461 -924 462 -998 0 -9 13 -29 28 -44 40 -39 108 -157 242 -421
139 -273 330 -671 330 -689 0 -15 -266 -554 -863 -1752 -310 -622 -421 -836
-428 -825 -33 49 -994 1987 -1175 2370 l-73 155 14 61 c33 142 91 267 785
1708 197 409 392 824 411 871 5 14 17 24 28 24 14 0 27 -19 51 -77z m7877
-983 c650 -1300 796 -1605 788 -1637 -11 -45 -1269 -2583 -1280 -2583 -6 0
-272 531 -648 1295 -500 1018 -597 1223 -597 1259 0 92 98 313 560 1271 352
729 470 974 525 1095 89 195 138 291 149 287 6 -1 232 -446 503 -987z"/>
<path d="M14996 18765 c-104 -27 -183 -72 -230 -134 -81 -106 -156 -294 -156
-393 0 -67 42 -153 126 -255 24 -30 44 -59 44 -63 0 -15 127 -140 143 -140 25
0 62 36 92 92 27 48 29 62 28 143 0 74 -6 105 -31 175 -114 317 -117 344 -44
423 14 15 34 27 44 27 24 0 41 -45 35 -87 -8 -44 18 -146 55 -217 50 -99 98
-259 98 -326 0 -126 -96 -302 -190 -349 -97 -50 -163 -31 -266 75 l-71 73 -6
-72 c-22 -277 -31 -342 -77 -532 -49 -200 -75 -349 -64 -366 3 -5 2 -9 -3 -9
-4 0 -8 -22 -8 -50 0 -27 3 -50 7 -50 11 0 3 -259 -10 -320 -7 -30 -24 -118
-38 -194 -14 -77 -30 -149 -34 -160 -5 -12 -14 -54 -21 -94 -7 -40 -16 -75
-21 -78 -4 -3 -8 -17 -8 -32 0 -15 -7 -49 -16 -77 -14 -47 -27 -99 -40 -169
-3 -17 -15 -64 -26 -105 -11 -42 -28 -114 -38 -161 -23 -109 -41 -172 -84
-305 -43 -131 -53 -193 -36 -226 7 -13 15 -44 17 -69 4 -51 50 -256 64 -282 5
-9 10 -28 11 -42 1 -15 6 -26 10 -26 4 0 8 -10 8 -23 0 -13 4 -27 9 -32 4 -6
15 -32 24 -60 58 -179 53 -158 63 -250 5 -50 -2 -115 -20 -190 -6 -24 -66
-132 -80 -144 -9 -8 -16 -18 -16 -24 0 -6 -7 -18 -15 -27 -18 -20 -22 -93 -7
-130 5 -14 37 -81 70 -150 33 -69 64 -141 70 -160 29 -102 119 -267 170 -313
39 -35 92 -46 222 -47 l125 0 2 26 c0 15 -11 47 -26 73 -25 43 -32 48 -101 70
-189 59 -231 88 -298 198 -39 65 -67 154 -79 256 -4 40 20 154 42 197 7 14 55
84 107 155 158 220 222 328 248 425 7 25 15 52 18 60 10 29 8 96 -6 195 -8 55
-15 114 -17 130 -2 17 -6 46 -10 65 -27 147 -32 209 -20 256 7 27 14 49 16 48
16 -2 37 -25 54 -57 11 -21 23 -40 26 -43 4 -2 9 18 13 45 18 138 88 272 289
556 31 44 99 143 151 220 l95 139 -172 171 c-174 172 -179 178 -211 228 -9 16
-25 37 -34 48 -19 22 -94 160 -90 164 8 8 36 8 67 1 24 -6 67 -41 156 -130
148 -147 244 -236 255 -236 5 0 10 -3 12 -7 6 -14 96 -83 108 -83 6 0 21 -7
33 -15 22 -14 27 -12 75 18 52 33 199 170 242 228 14 17 44 57 67 88 23 31 54
69 68 84 14 15 25 30 25 33 0 3 14 25 30 49 17 24 30 46 30 49 0 8 59 101 166
261 90 135 190 255 213 255 6 0 11 5 11 10 0 6 8 10 18 10 59 0 116 137 82
200 -26 48 -126 24 -171 -42 -12 -18 -27 -37 -33 -43 -7 -5 -22 -27 -35 -48
-13 -21 -48 -69 -79 -107 -32 -38 -85 -107 -120 -152 -35 -46 -84 -108 -109
-138 -53 -64 -324 -353 -335 -358 -4 -2 -21 -16 -37 -32 -17 -15 -50 -37 -73
-48 -53 -25 -68 -15 -73 49 -9 105 -33 192 -90 324 -59 134 -65 157 -46 169
15 9 63 -13 94 -42 41 -38 86 -106 124 -185 l33 -68 25 17 c31 20 39 63 32
168 -8 113 -42 237 -89 331 -22 44 -43 85 -48 90 -7 9 -20 33 -91 161 -44 78
-88 195 -92 245 -3 24 -8 52 -12 62 -14 34 0 211 21 253 31 63 72 84 168 84
80 1 81 1 54 18 -20 12 -28 25 -28 45 0 41 53 61 140 53 101 -10 240 -38 240
-47 0 -12 57 -11 65 1 3 6 14 10 23 10 34 0 141 72 157 106 21 45 20 50 -26
95 -40 39 -41 42 -37 95 l5 54 -36 5 c-20 3 -58 10 -86 15 -27 5 -75 14 -105
20 -173 32 -216 56 -227 126 -3 21 -14 50 -23 64 -63 89 -454 175 -614 135z
m525 -125 c41 -12 59 -41 59 -100 0 -22 4 -40 9 -40 5 0 8 -11 7 -25 -3 -28
-37 -65 -59 -65 -7 0 -18 -5 -25 -12 -17 -17 -71 4 -136 53 -28 21 -54 39 -58
39 -4 0 -9 8 -13 19 -7 23 14 71 32 71 7 0 13 4 13 8 0 15 88 58 125 61 6 1
26 -4 46 -9z"/>
<path d="M17975 18774 c-69 -10 -214 -48 -275 -71 -85 -33 -144 -92 -137 -137
7 -44 -24 -72 -104 -96 -37 -11 -71 -20 -76 -19 -4 1 -11 0 -15 -1 -16 -5 -24
-7 -73 -14 -27 -4 -79 -14 -115 -22 l-65 -15 0 -42 c0 -31 -9 -54 -33 -89 -17
-26 -32 -57 -32 -70 1 -54 55 -104 143 -133 31 -11 57 -23 57 -27 0 -11 64
-10 76 1 15 14 163 49 185 44 10 -3 25 0 33 6 10 8 16 9 21 1 3 -5 21 -10 38
-10 88 -1 117 -70 42 -100 -13 -6 11 -9 68 -9 57 -1 98 -6 117 -16 31 -16 60
-65 60 -100 0 -12 3 -25 6 -28 10 -10 17 -187 7 -187 -4 0 -9 -21 -11 -47 -6
-87 -58 -215 -149 -365 -60 -99 -108 -196 -124 -247 -44 -152 -63 -264 -47
-293 5 -12 5 -26 -3 -39 -8 -17 -8 -23 1 -29 7 -4 10 -12 6 -18 -3 -6 6 -19
22 -30 l27 -20 13 26 c6 14 12 32 12 39 0 33 91 175 141 219 42 37 88 59 99
48 12 -12 -13 -95 -58 -194 -44 -95 -73 -204 -73 -268 0 -31 -3 -61 -7 -67 -4
-5 -7 -14 -8 -20 0 -5 -2 -15 -2 -21 -2 -15 -40 -25 -48 -13 -3 5 -13 9 -23 9
-10 0 -26 9 -36 20 -10 11 -22 20 -28 20 -26 0 -287 280 -417 449 -41 54 -113
146 -160 206 -47 59 -110 142 -140 184 -86 118 -170 154 -211 89 -16 -27 -19
-43 -14 -87 9 -69 11 -76 38 -90 12 -6 36 -20 52 -31 17 -11 39 -24 50 -29 36
-18 61 -45 135 -146 41 -55 78 -101 82 -103 4 -2 8 -7 8 -12 0 -5 20 -41 44
-82 62 -100 120 -201 125 -213 2 -5 16 -24 30 -41 14 -17 33 -41 41 -54 8 -13
24 -33 35 -46 11 -12 38 -43 60 -69 22 -26 55 -61 73 -78 17 -16 32 -35 33
-41 0 -12 120 -116 181 -158 44 -30 37 -32 130 25 40 24 140 111 195 169 19
20 53 49 74 64 21 15 39 30 39 35 0 11 92 97 135 126 42 28 57 29 73 3 10 -17
10 -25 -3 -48 -61 -109 -106 -162 -308 -365 -135 -136 -146 -150 -136 -170 33
-62 121 -187 130 -182 5 4 9 -2 9 -12 0 -10 13 -34 28 -53 16 -19 37 -50 47
-67 11 -18 23 -33 27 -33 4 0 8 -5 8 -10 0 -6 11 -23 25 -38 14 -15 25 -32 25
-38 0 -6 9 -19 19 -28 11 -10 27 -32 36 -49 16 -33 28 -52 56 -97 9 -14 22
-42 28 -62 7 -21 17 -38 22 -38 5 0 9 -9 9 -20 0 -11 9 -35 19 -54 11 -19 18
-36 16 -38 -3 -2 -1 -20 4 -39 5 -19 12 -47 16 -64 l7 -30 14 27 c24 46 62 81
80 74 14 -6 16 -16 10 -74 -10 -99 -13 -118 -31 -222 -47 -269 -46 -360 2
-480 19 -46 37 -87 41 -90 4 -3 8 -12 10 -20 6 -29 40 -96 56 -109 9 -8 16
-19 16 -25 0 -6 17 -30 38 -52 90 -100 172 -222 191 -285 7 -24 16 -51 18 -59
23 -66 -6 -258 -53 -355 -25 -51 -111 -145 -132 -145 -5 0 -27 -7 -48 -17 -22
-9 -49 -17 -60 -19 -12 -1 -35 -9 -50 -17 -16 -8 -40 -17 -54 -21 -38 -9 -71
-42 -85 -82 -16 -48 -9 -72 24 -78 79 -16 99 -17 105 -7 4 6 32 11 62 11 130
0 206 86 315 355 18 44 41 96 52 115 56 101 97 212 97 265 0 30 -5 57 -11 61
-19 12 -78 112 -98 166 -28 78 -44 181 -36 234 9 61 42 190 60 234 57 142 125
399 125 475 0 28 4 56 8 62 13 21 -7 184 -33 266 -14 43 -25 87 -25 97 0 10
-4 21 -9 25 -5 3 -15 31 -21 63 -6 31 -15 71 -21 87 -5 17 -9 33 -9 38 0 4 -6
22 -14 41 -7 18 -17 53 -21 77 -4 24 -11 49 -15 54 -11 13 -57 197 -64 250 -2
22 -5 40 -7 40 -1 0 -3 10 -5 23 -8 46 -11 57 -17 72 -4 8 -9 29 -11 45 -2 17
-6 37 -8 45 -9 25 -29 115 -33 146 -2 16 -4 29 -5 29 -1 0 -3 16 -6 35 -2 19
-8 58 -14 85 -5 28 -12 68 -15 90 -4 22 -8 51 -10 65 -6 41 -6 182 0 225 7 45
4 160 -4 160 -1 0 -3 27 -5 60 -2 33 -17 112 -34 175 -17 63 -33 126 -35 140
-3 14 -10 43 -16 65 -12 48 -19 94 -26 199 -4 44 -9 84 -11 88 -3 5 -8 41 -10
81 -2 40 -7 87 -10 105 l-5 32 -55 -64 c-96 -112 -195 -140 -286 -81 -135 88
-206 308 -153 475 9 30 32 89 50 130 56 129 94 252 91 297 -4 51 5 67 33 58
38 -12 73 -70 80 -135 4 -33 4 -60 0 -60 -4 0 -9 -12 -12 -27 -2 -16 -21 -73
-41 -128 -54 -146 -65 -183 -72 -253 -6 -58 -4 -67 30 -137 61 -123 97 -131
172 -39 85 103 116 140 139 166 22 25 75 127 79 153 1 6 4 15 8 20 11 19 -2
134 -22 197 -51 152 -132 277 -214 327 -69 43 -283 79 -381 65z m-182 -154
c40 -17 80 -42 90 -56 17 -23 17 -27 3 -49 -9 -14 -31 -32 -49 -41 -17 -9 -47
-30 -65 -45 -42 -37 -88 -38 -127 -5 -25 22 -29 32 -30 80 0 31 3 56 7 56 4 0
8 11 8 23 0 28 25 53 60 60 14 2 26 5 28 6 2 0 36 -13 75 -29z"/>
<path d="M17558 17963 c6 -2 18 -2 25 0 6 3 1 5 -13 5 -14 0 -19 -2 -12 -5z"/>
<path d="M15718 17953 c7 -3 16 -2 19 1 4 3 -2 6 -13 5 -11 0 -14 -3 -6 -6z"/>
<path d="M17468 17953 c7 -3 16 -2 19 1 4 3 -2 6 -13 5 -11 0 -14 -3 -6 -6z"/>
<path d="M15961 16153 c-29 -37 -48 -70 -43 -75 5 -5 49 -25 99 -46 83 -34
132 -61 154 -87 5 -5 20 -22 34 -38 30 -34 47 -93 51 -177 6 -129 23 -175 81
-215 58 -39 78 -34 97 23 24 72 22 125 -7 192 -8 19 -21 55 -28 80 -21 77 -59
132 -152 223 -50 48 -94 87 -98 87 -5 0 -21 11 -36 25 -43 38 -90 75 -96 75
-2 0 -28 -30 -56 -67z"/>
<path d="M17130 16188 c-108 -56 -165 -100 -211 -162 -25 -33 -50 -70 -54 -81
-15 -39 -76 -211 -87 -245 -16 -49 -16 -139 1 -177 17 -42 55 -44 97 -5 32 29
46 65 64 157 6 33 16 85 22 115 10 54 44 127 76 164 25 28 78 58 167 95 44 18
82 35 84 36 4 4 -85 122 -97 128 -4 2 -32 -9 -62 -25z"/>
<path d="M15059 14908 c-1 -13 -3 -36 -5 -53 -2 -16 -6 -128 -8 -249 -2 -120
-10 -257 -17 -303 -11 -71 -10 -86 1 -93 8 -5 11 -12 8 -16 -4 -4 -3 -15 2
-25 9 -16 28 -117 34 -183 2 -16 0 -46 -5 -65 -4 -20 -13 -63 -19 -96 -7 -33
-16 -68 -21 -77 -12 -24 -12 -125 1 -133 5 -3 25 -29 44 -58 20 -29 56 -74 82
-102 25 -27 63 -72 83 -100 21 -27 50 -61 64 -75 15 -14 27 -28 27 -32 0 -9 6
-15 103 -116 67 -68 69 -70 130 -76 130 -14 203 -15 235 -5 37 12 37 11 17 48
-27 54 -82 89 -149 96 -11 1 -21 3 -21 4 0 3 -24 8 -77 15 -92 13 -178 84
-281 233 -70 102 -91 158 -92 248 -2 83 9 127 61 243 13 29 24 58 24 66 0 7 3
16 7 20 4 4 15 32 25 64 81 257 63 462 -56 637 -25 36 -183 205 -192 205 -2 0
-5 -10 -5 -22z"/>
<path d="M18064 14856 c-39 -39 -77 -82 -84 -96 -7 -14 -20 -34 -29 -45 -40
-48 -111 -265 -111 -340 0 -62 34 -221 70 -320 17 -49 34 -101 37 -115 3 -14
12 -34 18 -45 29 -46 49 -133 49 -210 1 -72 -2 -86 -33 -145 -70 -134 -185
-262 -271 -302 -30 -14 -82 -28 -115 -32 -94 -9 -117 -15 -154 -44 -19 -15
-38 -29 -42 -32 -3 -3 -10 -19 -13 -37 l-7 -31 53 -7 c102 -11 192 -4 253 22
38 16 163 143 277 279 24 29 63 76 88 105 120 141 141 175 139 221 -1 23 -8
60 -16 81 -7 21 -19 75 -27 120 -12 69 -12 95 0 167 14 89 30 153 45 183 6 11
6 24 0 35 -22 41 -35 380 -17 414 6 10 5 41 -4 86 -7 39 -10 77 -7 86 3 8 2
18 -3 21 -6 4 -10 17 -10 31 0 13 -3 23 -7 22 -5 -1 -40 -33 -79 -72z"/>
</g>
</svg>
