<?xml version="1.0" standalone="no"?>
<!DOCTYPE svg PUBLIC "-//W3C//DTD SVG 20010904//EN"
 "http://www.w3.org/TR/2001/REC-SVG-20010904/DTD/svg10.dtd">
<svg version="1.0" xmlns="http://www.w3.org/2000/svg"
 width="4267.000000pt" height="4267.000000pt" viewBox="0 0 4267.000000 4267.000000"
 preserveAspectRatio="xMidYMid meet">

<g transform="translate(0.000000,4267.000000) scale(0.100000,-0.100000)"
fill="#001f4d" stroke="none">
<path d="M21325 40859 c-27 -5 -177 -39 -332 -75 -371 -85 -456 -97 -613 -90
-147 6 -211 22 -339 82 -52 25 -101 42 -109 39 -24 -9 -8 -76 33 -141 52 -82
189 -216 253 -248 28 -14 52 -30 52 -35 0 -16 -38 -41 -121 -80 -124 -58 -229
-85 -307 -78 -77 8 -87 -5 -49 -62 25 -38 89 -84 199 -145 l56 -31 -72 -82
c-149 -168 -170 -247 -236 -855 -35 -323 -71 -423 -214 -592 -42 -50 -74 -92
-72 -94 2 -2 65 8 138 22 74 14 141 26 148 26 19 0 8 -500 -15 -638 -32 -203
-86 -345 -178 -467 -25 -33 -44 -61 -42 -63 4 -5 187 32 297 60 72 18 90 19
102 8 19 -15 20 -67 5 -230 -32 -362 -111 -567 -239 -625 -45 -20 -52 -40 -17
-49 30 -8 155 -6 257 4 47 4 87 6 89 4 5 -5 -42 -118 -92 -219 -51 -104 -88
-165 -218 -365 -181 -279 -198 -327 -224 -628 -8 -101 -20 -192 -26 -203 -9
-18 -13 -19 -32 -7 -55 35 -99 197 -114 413 l-8 120 -160 7 c-200 8 -361 39
-582 113 -355 119 -703 302 -886 465 -170 153 -297 452 -285 669 11 189 98
286 433 482 136 80 267 202 312 294 64 128 84 231 84 424 0 286 -84 449 -393
762 -205 208 -337 281 -863 474 -475 174 -1126 509 -1710 880 -528 335 -692
416 -759 372 -112 -74 12 -544 230 -872 75 -114 129 -172 271 -290 219 -182
427 -322 808 -545 116 -68 226 -134 245 -148 l35 -24 -29 7 c-41 9 -217 91
-461 215 -565 287 -971 535 -2115 1290 -782 516 -1003 650 -1075 650 -34 0
-49 -54 -42 -144 19 -224 174 -598 340 -821 70 -95 251 -279 371 -378 385
-319 1250 -850 1954 -1198 246 -123 309 -159 273 -159 -64 0 -1303 426 -1841
633 -931 359 -1536 679 -2280 1206 -68 49 -123 81 -135 79 -35 -5 -49 -76 -49
-253 0 -147 2 -168 28 -250 80 -261 267 -538 542 -805 156 -151 253 -228 459
-365 595 -395 1369 -705 2465 -990 321 -83 421 -112 434 -125 16 -16 -115 -12
-380 10 -1615 137 -2757 319 -3639 580 -93 27 -171 50 -173 50 -3 0 -2 -42 0
-92 3 -71 11 -109 33 -163 81 -204 278 -462 475 -625 268 -221 823 -493 1220
-599 632 -168 1859 -221 2720 -117 110 13 130 13 118 1 -23 -23 -549 -134
-1038 -220 -834 -145 -1437 -222 -2370 -300 -662 -55 -810 -78 -825 -126 -22
-68 211 -339 438 -510 89 -67 275 -162 412 -209 713 -248 1702 -177 2870 206
94 31 307 107 475 169 340 125 439 159 446 152 16 -16 -1199 -678 -1966 -1070
-409 -209 -766 -362 -1445 -620 -198 -75 -271 -107 -273 -119 -8 -42 197 -202
369 -289 123 -62 243 -108 326 -127 115 -25 823 -25 961 1 245 45 696 229
1057 431 387 217 838 534 1414 995 60 48 49 32 -98 -144 -216 -258 -384 -439
-721 -775 -467 -468 -582 -571 -1335 -1195 -268 -222 -350 -297 -371 -338 -14
-26 -13 -29 17 -57 108 -98 380 -161 634 -146 364 22 758 187 1112 468 367
290 869 816 1185 1241 51 69 141 190 200 269 58 78 119 154 134 168 l27 25 -7
-34 c-28 -148 -558 -1098 -1039 -1861 -124 -197 -249 -384 -427 -640 -141
-203 -150 -218 -129 -231 40 -25 488 -1 645 36 119 28 295 128 474 272 117 94
328 306 436 439 266 327 614 943 776 1374 58 153 120 280 126 255 13 -57 -166
-693 -346 -1225 -146 -430 -284 -782 -414 -1050 -39 -80 -81 -168 -93 -196
l-23 -51 21 3 c12 2 85 13 162 24 351 49 562 148 779 366 153 152 278 339 420
624 146 294 239 536 321 834 24 88 49 164 55 170 24 24 3 -256 -51 -684 -58
-458 -130 -848 -189 -1020 -34 -98 -31 -104 45 -94 182 22 323 78 461 183 283
212 569 638 748 1114 90 239 122 295 149 268 20 -20 15 -445 -7 -551 -31 -153
-110 -323 -375 -813 -152 -281 -219 -445 -262 -649 -43 -199 -32 -555 20 -672
21 -48 43 -66 150 -122 87 -45 168 -120 199 -185 62 -128 52 -307 -26 -469
-71 -147 -246 -286 -448 -356 -239 -82 -383 -47 -566 137 -95 95 -124 143 -98
159 6 4 76 10 153 12 192 7 228 23 329 150 57 70 68 106 68 219 0 204 -84 374
-232 470 -133 85 -301 92 -490 20 -59 -23 -110 -41 -115 -41 -4 0 -28 49 -52
108 -59 145 -102 220 -163 287 -64 70 -111 95 -179 95 -148 0 -384 -108 -518
-236 l-66 -64 125 -117 c69 -64 185 -176 257 -248 163 -162 175 -185 203 -381
42 -295 109 -417 297 -537 105 -67 158 -137 228 -301 25 -58 55 -121 66 -141
20 -34 23 -35 77 -35 72 0 248 27 515 80 1384 270 2698 333 4062 195 458 -46
865 -109 1430 -219 466 -90 408 -86 447 -31 18 25 58 92 89 147 74 133 148
227 235 298 138 114 224 231 265 360 12 37 24 115 29 181 6 88 14 127 30 160
22 43 226 254 455 469 l109 103 -92 88 c-77 74 -110 97 -195 139 -163 79 -327
111 -395 76 -33 -17 -106 -94 -149 -156 -51 -75 -91 -164 -120 -264 l-27 -96
-50 31 c-214 128 -341 145 -501 69 -115 -55 -250 -187 -291 -285 -25 -60 -29
-184 -10 -293 20 -113 32 -138 92 -191 112 -98 257 -131 428 -95 42 8 81 14
86 12 13 -4 -63 -121 -110 -168 -115 -115 -320 -210 -454 -210 -327 0 -656
341 -656 681 0 160 61 259 217 351 98 58 153 116 184 194 22 55 24 72 23 244
-1 340 -57 599 -185 852 -17 35 -88 157 -156 271 -212 355 -302 561 -339 777
-20 115 -15 420 7 484 29 83 50 57 126 -162 157 -450 408 -863 687 -1130 76
-72 114 -100 179 -131 149 -71 407 -145 430 -122 6 6 -9 88 -42 229 -58 250
-104 519 -160 936 -50 369 -73 587 -69 651 l3 50 38 -120 c251 -797 486 -1262
797 -1576 230 -232 452 -338 802 -383 101 -13 184 -22 186 -20 2 1 -33 71 -77
156 -100 192 -176 363 -306 693 -273 688 -536 1495 -523 1602 l3 28 23 -35
c12 -19 56 -116 98 -215 90 -213 180 -400 262 -545 368 -656 865 -1226 1227
-1407 210 -106 637 -181 795 -140 38 10 45 16 48 39 5 43 -54 144 -214 363
-364 500 -762 1126 -1071 1685 -258 467 -380 705 -371 731 4 11 128 -144 397
-493 250 -325 460 -568 691 -799 529 -529 961 -809 1365 -885 137 -26 441 -26
568 -1 154 31 315 100 331 143 16 42 -75 133 -408 406 -522 429 -955 817
-1331 1193 -423 423 -813 850 -793 870 2 3 159 -108 349 -246 729 -532 1186
-807 1689 -1019 256 -108 477 -170 676 -191 231 -23 581 1 794 55 221 57 512
224 586 336 15 22 24 46 21 55 -9 22 -61 51 -147 81 -361 128 -819 312 -1235
496 -286 126 -821 405 -1680 875 -491 269 -643 357 -620 361 12 2 140 -43 285
-98 1176 -449 1963 -606 2812 -561 507 27 797 108 1102 308 90 59 366 334 428
428 58 86 68 119 40 134 -51 27 -200 46 -727 91 -718 61 -1418 136 -1745 186
-525 80 -1403 245 -1670 315 -121 31 -172 57 -90 45 307 -43 471 -54 996 -62
704 -12 1136 21 1601 121 677 146 1248 410 1558 720 211 211 434 597 423 732
-3 35 -6 38 -36 41 -18 2 -90 -12 -160 -32 -810 -223 -2154 -444 -3317 -545
-235 -21 -805 -54 -811 -48 -2 1 128 34 289 71 1200 282 2030 603 2692 1041
215 143 358 257 511 410 234 233 387 455 478 690 69 181 85 358 45 527 -11 49
-25 88 -30 86 -4 -2 -81 -59 -169 -127 -571 -437 -1415 -892 -2232 -1201 -498
-189 -1807 -629 -1839 -618 -14 5 77 55 411 228 706 365 1210 669 1609 968
356 267 635 550 755 765 75 134 125 341 133 547 5 142 -3 190 -33 190 -33 0
-400 -228 -999 -620 -889 -582 -1486 -947 -2040 -1246 -238 -128 -489 -248
-507 -242 -16 6 34 39 287 193 646 394 890 606 1049 913 63 124 97 234 151
491 55 262 55 267 -31 258 -96 -10 -281 -106 -694 -362 -367 -227 -667 -393
-1050 -578 -392 -190 -595 -278 -880 -384 -202 -75 -383 -160 -490 -231 -207
-137 -446 -396 -542 -586 -64 -127 -81 -206 -82 -386 -1 -172 11 -238 64 -345
66 -136 168 -232 437 -411 207 -138 314 -233 338 -302 28 -78 31 -233 7 -331
-71 -278 -300 -528 -662 -724 -182 -98 -459 -205 -668 -257 -139 -35 -270 -50
-432 -50 -145 0 -222 -10 -234 -29 -3 -5 -10 -84 -15 -177 -12 -200 -32 -280
-86 -340 l-36 -39 6 35 c16 97 17 218 0 305 -33 178 -117 386 -221 547 -86
133 -102 181 -64 193 25 8 25 31 1 87 -73 170 -289 444 -603 764 -98 99 -178
183 -178 186 0 3 69 8 153 10 147 5 187 11 187 29 0 15 -81 61 -225 126 -264
120 -428 257 -574 479 -204 309 -254 545 -143 674 65 77 92 85 297 86 189 1
280 13 465 59 147 37 220 75 220 114 0 25 -32 51 -63 51 -38 0 -143 26 -309
75 -240 72 -286 79 -488 71 -156 -5 -173 -4 -156 9 23 17 102 41 206 62 99 19
171 12 367 -38 316 -80 482 -61 626 70 60 56 73 90 35 92 -13 1 -90 2 -173 4
-153 2 -257 18 -415 65 -271 80 -360 87 -510 40 -110 -35 -100 -32 -100 -21 0
21 328 172 540 250 222 81 357 106 537 98 182 -7 300 -47 440 -151 84 -62 118
-113 109 -166 -5 -35 -4 -40 13 -40 37 0 108 143 150 304 25 97 27 223 5 310
-66 254 -315 477 -639 571 -151 43 -248 56 -476 62 l-217 6 -4 106 c-3 91 -6
111 -26 138 -58 82 -268 166 -531 214 -132 24 -508 36 -596 18z m407 -609
c190 -49 366 -80 466 -81 43 0 86 -4 97 -9 17 -7 13 -11 -29 -30 -70 -32 -138
-100 -212 -211 -77 -117 -112 -149 -162 -149 -110 1 -242 128 -242 233 0 53
19 47 85 -28 92 -105 139 -118 221 -62 35 23 57 48 77 88 33 64 30 95 -9 110
-93 35 -766 38 -917 5 -43 -10 -81 -16 -84 -13 -10 11 127 67 257 106 74 22
164 49 200 59 36 11 73 21 82 21 9 1 86 -17 170 -39z m-55 -8634 c120 -32 242
-107 345 -213 67 -68 117 -148 154 -246 39 -101 92 -151 212 -201 235 -97 390
-288 437 -540 26 -144 46 -166 145 -166 59 0 91 -11 119 -41 61 -66 -14 -366
-134 -534 -91 -128 -243 -233 -384 -265 -234 -54 -496 49 -647 254 -72 96
-149 230 -129 222 9 -3 83 -24 163 -46 265 -73 335 -75 462 -14 129 62 231
181 265 309 45 175 -6 360 -138 502 -110 118 -251 185 -414 199 -46 4 -87 12
-92 18 -5 6 -11 65 -12 132 -4 119 -5 122 -46 206 -33 67 -58 100 -115 154
-92 87 -208 148 -283 148 -75 0 -191 -61 -283 -148 -57 -54 -82 -87 -115 -154
-41 -84 -42 -87 -46 -209 -2 -102 -6 -125 -20 -132 -9 -5 -56 -12 -106 -16
-120 -9 -167 -21 -250 -63 -134 -69 -250 -217 -289 -368 -31 -118 -16 -275 35
-381 44 -92 173 -183 307 -218 76 -19 217 -22 287 -5 28 7 82 30 121 51 39 22
79 39 88 39 39 0 28 -56 -28 -140 -147 -221 -358 -340 -602 -340 -110 0 -191
22 -282 78 -169 101 -288 280 -333 496 -22 109 -24 165 -5 210 17 40 48 53
145 59 96 6 114 24 131 129 25 158 66 256 148 355 63 75 130 126 276 209 151
85 191 120 200 175 14 88 111 245 211 344 68 66 170 126 256 149 69 19 180 20
246 2z"/>
<path d="M8335 31199 c-519 -42 -1003 -206 -1413 -479 -200 -134 -291 -208
-468 -385 -366 -363 -612 -765 -789 -1287 -100 -294 -127 -446 -145 -818 -45
-955 93 -1693 455 -2429 257 -522 554 -932 1099 -1516 345 -371 753 -916 796
-1064 21 -75 -34 -9 -200 239 -95 141 -119 169 -274 319 -332 320 -782 785
-999 1034 -47 54 -166 204 -264 335 -98 130 -207 267 -242 304 -104 111 -243
193 -427 253 -262 86 -536 84 -720 -6 -235 -115 -400 -458 -381 -788 9 -164
58 -284 147 -364 120 -108 283 -161 548 -177 164 -10 242 -23 242 -39 0 -17
-38 -23 -200 -32 -267 -15 -439 -53 -605 -134 -168 -83 -239 -155 -324 -330
-94 -192 -139 -368 -126 -498 26 -252 145 -408 355 -462 53 -14 91 -16 205
-11 407 18 438 18 508 2 83 -19 155 -55 208 -103 76 -68 179 -243 179 -302 0
-25 4 -31 20 -31 27 0 53 13 245 128 170 101 275 155 284 146 9 -8 -35 -42
-204 -157 -372 -254 -637 -519 -875 -878 -264 -399 -410 -829 -410 -1210 0
-267 66 -489 181 -609 66 -69 124 -95 215 -94 95 0 184 42 270 129 78 78 125
168 205 402 76 223 114 315 195 473 66 129 170 290 192 298 17 5 13 -3 -83
-213 -93 -201 -137 -316 -188 -485 -323 -1066 -162 -2512 404 -3644 171 -340
338 -602 680 -1061 447 -600 555 -792 566 -1005 5 -87 3 -103 -26 -187 -52
-156 -98 -212 -231 -276 -119 -57 -156 -83 -175 -124 -51 -106 47 -308 234
-485 154 -145 336 -247 508 -283 99 -21 264 -19 355 4 244 63 449 253 552 514
56 142 70 219 70 392 0 146 -2 168 -27 250 -62 202 -201 439 -420 713 -172
218 -185 249 -56 139 166 -142 343 -379 448 -602 21 -44 57 -137 80 -207 24
-71 46 -128 49 -128 10 1 113 135 157 204 85 133 167 351 207 550 20 95 23
141 22 321 0 185 -3 219 -22 289 -47 169 -147 354 -324 603 -54 76 -98 145
-98 154 0 23 33 27 290 33 234 5 287 16 385 81 336 224 460 684 273 1013 -67
118 -224 252 -295 252 -18 0 -104 -23 -191 -52 -144 -48 -165 -52 -252 -53
-111 0 -155 12 -315 89 -291 141 -526 405 -720 809 -136 285 -160 406 -160
822 0 313 15 456 70 700 14 60 25 124 25 140 0 41 -32 70 -139 129 -350 193
-611 540 -685 911 -14 74 -39 335 -32 342 2 2 21 -69 44 -158 23 -92 62 -209
89 -272 192 -444 592 -828 916 -879 214 -33 400 96 493 342 26 70 28 85 28
227 1 83 5 155 9 159 11 12 369 -352 463 -471 254 -320 362 -597 366 -936 2
-102 -1 -131 -16 -162 -22 -45 -101 -110 -176 -146 -51 -23 -66 -26 -190 -26
-164 0 -178 -6 -210 -92 -38 -101 -52 -165 -57 -263 -5 -87 -3 -102 25 -187
61 -179 161 -352 259 -444 189 -179 526 -300 848 -303 137 -1 169 9 279 88
141 100 326 367 392 565 l32 94 6 -49 c3 -27 13 -116 22 -199 17 -175 55 -377
88 -475 117 -345 557 -546 871 -396 94 44 159 106 243 229 75 110 105 143 121
132 16 -9 39 -101 46 -185 8 -92 -10 -287 -36 -389 -39 -153 -129 -307 -261
-446 -82 -87 -180 -159 -256 -188 -76 -30 -217 -41 -344 -29 -152 16 -194 15
-234 -4 -52 -25 -68 -80 -69 -233 0 -151 22 -234 86 -330 49 -74 85 -103 192
-156 44 -22 82 -45 84 -52 8 -24 -70 -32 -352 -36 -399 -7 -543 -31 -740 -127
-160 -77 -264 -186 -305 -318 -22 -70 -35 -196 -25 -251 10 -59 32 -70 171
-82 66 -6 121 -13 123 -15 2 -2 -82 -88 -186 -191 -216 -214 -300 -321 -378
-478 -92 -187 -126 -343 -126 -579 0 -204 38 -363 129 -540 108 -211 303 -408
485 -492 98 -44 180 -58 352 -58 175 -1 277 15 389 60 173 69 386 314 386 443
0 56 -18 62 -194 59 -114 -2 -148 1 -178 14 -49 22 -133 101 -165 156 -79 134
54 366 271 473 60 29 153 58 351 108 638 164 925 308 1259 631 466 452 750
1080 855 1892 37 281 46 436 45 798 0 346 -8 498 -40 750 -78 615 -279 1126
-580 1475 -74 86 -134 170 -134 187 0 4 27 38 61 75 129 142 168 293 156 602
-18 472 -169 773 -593 1180 -223 214 -356 303 -724 486 l-215 106 220 -8 c409
-15 476 -8 622 66 188 94 290 210 334 377 18 69 20 96 14 219 -3 77 -8 147
-11 157 -4 12 35 42 153 120 254 168 364 266 475 422 130 185 212 425 224 661
12 225 -58 394 -222 535 -86 74 -102 77 -612 110 -285 18 -345 36 -701 205
-308 145 -415 175 -636 175 -251 0 -458 -67 -578 -187 -104 -102 -143 -196
-158 -379 -11 -138 -32 -209 -83 -287 -71 -106 -228 -234 -383 -311 -140 -69
-221 -83 -523 -91 l-215 -5 160 35 c370 80 598 198 669 348 44 95 69 212 70
332 1 99 -2 116 -25 166 -74 158 -307 299 -519 316 -44 3 -80 9 -80 13 0 5 62
70 138 147 109 109 146 153 175 209 110 212 83 395 -90 629 -153 206 -273 257
-648 275 -412 20 -510 35 -650 100 -159 74 -415 286 -415 344 0 17 38 2 94
-36 129 -88 227 -118 385 -118 258 0 503 134 599 328 33 67 37 86 40 163 3 76
1 93 -18 127 -46 83 -184 141 -378 161 -163 17 -281 92 -406 258 -212 280
-297 641 -230 968 38 188 225 434 424 557 209 130 444 174 847 157 191 -8 297
-23 290 -42 -5 -15 -40 -23 -183 -41 -355 -46 -617 -203 -803 -483 -80 -121
-96 -184 -95 -383 1 -190 18 -273 81 -400 57 -114 169 -222 293 -282 125 -62
228 -92 315 -92 l69 -1 8 44 c10 57 59 133 111 171 165 121 497 64 867 -148
249 -143 498 -361 476 -417 -9 -24 -77 -35 -273 -44 -368 -18 -599 -98 -769
-266 -112 -111 -149 -186 -149 -305 0 -75 4 -93 31 -151 18 -37 59 -107 92
-157 119 -176 216 -357 347 -644 32 -71 61 -128 64 -128 4 0 59 18 121 39 154
53 248 71 373 71 235 0 464 -69 882 -267 627 -297 889 -363 1390 -350 434 12
735 84 1125 271 294 141 317 149 285 99 -75 -118 -211 -263 -329 -352 -168
-126 -304 -193 -583 -291 -138 -47 -153 -55 -153 -75 0 -22 36 -76 105 -158
167 -196 201 -568 85 -918 -64 -193 -154 -349 -275 -478 -89 -94 -157 -144
-292 -215 -67 -35 -119 -68 -129 -84 -13 -19 -20 -58 -25 -137 -4 -60 -14
-139 -24 -175 -41 -157 -156 -331 -291 -439 -90 -73 -173 -116 -307 -161 -54
-17 -97 -33 -95 -35 8 -9 275 -66 358 -77 146 -20 854 -16 1090 5 306 29 418
51 665 133 422 139 828 337 1211 590 183 121 341 245 589 460 123 106 175 141
175 116 0 -5 -26 -46 -57 -93 -144 -214 -209 -411 -220 -669 -10 -238 36 -390
152 -498 35 -33 77 -63 100 -70 22 -7 99 -17 170 -22 128 -10 1096 -33 1102
-26 2 2 -10 33 -26 69 -17 37 -42 104 -58 149 -26 79 -27 93 -27 263 0 154 3
191 22 258 65 236 191 437 345 552 129 98 265 145 416 145 168 0 289 -54 529
-235 l153 -116 75 68 c232 210 324 431 324 777 0 258 -12 274 -370 511 -135
89 -287 194 -337 234 -186 144 -361 331 -492 525 -264 390 -333 932 -179 1406
44 137 107 258 208 400 49 69 90 128 90 132 0 10 -58 41 -165 87 -55 24 -110
50 -123 58 -38 23 -11 40 96 59 124 21 204 52 294 109 132 86 228 195 228 258
0 35 -82 196 -215 422 -64 110 -124 210 -132 223 l-14 23 -47 -39 c-158 -132
-400 -252 -705 -351 -254 -82 -407 -105 -727 -105 -517 -1 -749 76 -1067 354
-153 133 -271 282 -324 409 -48 115 -64 216 -64 406 1 300 49 398 218 441 110
29 219 3 324 -77 39 -30 44 -31 73 -19 134 55 128 282 -13 528 -67 117 -119
183 -219 278 -139 130 -274 187 -477 200 -261 17 -590 -88 -762 -244 -106 -96
-214 -285 -248 -433 -6 -24 -11 -89 -11 -144 l0 -99 -59 58 c-100 99 -141 201
-141 351 0 136 41 249 121 336 37 40 39 41 96 37 l58 -3 -3 55 c-9 186 -182
436 -365 529 -35 18 -106 41 -162 52 -139 29 -362 22 -514 -15 -294 -74 -513
-253 -638 -523 -77 -167 -107 -378 -79 -558 51 -333 209 -668 639 -1352 133
-212 145 -233 130 -233 -5 0 -65 33 -134 74 -290 173 -559 437 -885 869 -516
682 -865 1052 -1262 1335 -647 463 -1377 679 -2097 621z m500 -609 c205 -19
439 -70 470 -102 7 -8 4 -9 -8 -5 -25 9 -353 45 -482 52 -273 17 -631 -46
-913 -159 -712 -287 -1227 -867 -1369 -1545 -23 -108 -26 -151 -27 -301 0
-191 13 -288 65 -495 90 -360 254 -739 463 -1070 49 -77 98 -156 109 -175 l21
-35 -28 25 c-16 14 -64 68 -108 120 -301 358 -506 829 -584 1340 -24 155 -25
486 -1 620 66 382 260 757 555 1071 274 293 704 536 1091 619 217 47 506 62
746 40z m1305 -448 c105 -66 325 -237 409 -317 145 -139 290 -323 556 -705
269 -387 456 -620 670 -835 342 -344 646 -531 1055 -650 258 -76 350 -106 350
-115 0 -40 -304 29 -580 132 -395 147 -617 285 -855 529 -183 188 -303 343
-565 729 -161 237 -303 429 -441 595 -127 153 -437 457 -605 593 -83 67 -159
129 -170 138 -24 20 104 -48 176 -94z m2994 -1079 c121 -215 280 -425 470
-621 197 -202 364 -333 577 -450 63 -34 128 -73 144 -87 29 -24 29 -24 7 -25
-84 -1 -430 195 -635 359 -187 151 -467 491 -564 686 -38 75 -103 248 -103
272 1 29 41 -23 104 -134z m3216 -2031 c0 -16 -173 -206 -380 -416 -527 -535
-875 -810 -1230 -971 -162 -74 -216 -89 -196 -57 3 6 70 51 148 100 221 140
440 320 870 717 294 271 541 480 686 579 80 54 102 65 102 48z m-9950 -282
c163 -240 349 -460 588 -691 144 -140 420 -384 567 -500 458 -363 585 -469
560 -469 -13 0 -171 100 -316 201 -562 391 -1070 878 -1349 1294 -87 129 -200
325 -200 345 1 23 61 -50 150 -180z m4905 -142 c158 -55 395 -118 590 -157
187 -38 346 -53 620 -58 433 -9 703 19 1068 111 248 62 277 68 277 57 0 -18
-231 -110 -390 -156 -646 -186 -1402 -141 -2090 122 -246 95 -417 184 -282
149 26 -7 119 -38 207 -68z m4596 -1676 c-14 -26 -260 -249 -356 -323 -418
-322 -1053 -631 -1444 -703 -180 -34 -164 -20 105 88 115 46 280 116 365 155
335 154 776 404 1004 568 178 128 327 233 332 233 2 0 -1 -8 -6 -18z m1212
-766 c15 -106 -31 -342 -92 -471 -65 -138 -118 -208 -329 -430 -104 -109 -107
-108 -21 5 98 130 168 245 239 393 102 213 180 437 180 519 0 44 17 33 23 -16z
m-5577 -230 c-185 -226 -633 -417 -1146 -487 -137 -19 -405 -16 -573 5 -81 11
-146 20 -145 22 2 1 113 10 248 18 405 27 598 52 810 106 245 62 401 130 664
288 93 57 171 100 174 98 3 -3 -12 -26 -32 -50z m-2876 -1824 c708 -377 1063
-616 1370 -922 260 -260 429 -504 655 -951 121 -239 225 -482 211 -496 -7 -8
-28 30 -138 247 -63 124 -144 275 -180 335 -411 685 -977 1192 -1943 1740
-372 210 -431 248 -420 265 7 11 114 -41 445 -218z m2238 -712 c67 -48 249
-228 334 -330 166 -199 312 -441 403 -669 45 -115 56 -151 45 -151 -11 0 -60
83 -145 245 -154 293 -254 432 -506 705 -192 209 -237 277 -131 200z m-4684
-1992 c68 -576 118 -846 210 -1121 105 -318 240 -612 413 -899 174 -290 310
-474 612 -828 l56 -65 -90 82 c-330 297 -712 779 -872 1097 -100 200 -233 557
-288 774 -38 152 -54 285 -64 563 -11 292 -21 731 -15 709 2 -8 19 -149 38
-312z m891 -853 c198 -318 347 -515 578 -765 58 -63 104 -116 102 -119 -9 -8
-160 114 -254 204 -162 157 -301 344 -449 605 -116 206 -200 401 -142 332 10
-12 84 -128 165 -257z m4919 -2787 c-88 -174 -349 -404 -608 -537 -126 -65
-205 -91 -296 -98 -68 -5 -74 -4 -60 11 8 8 74 38 146 65 295 111 418 192 644
423 164 167 207 201 174 136z"/>
<path d="M34275 31190 c-231 -14 -388 -45 -638 -126 -190 -62 -353 -131 -547
-230 -268 -138 -429 -264 -770 -604 -302 -301 -536 -572 -818 -947 -216 -287
-436 -539 -590 -676 -197 -176 -374 -307 -414 -307 -18 0 -18 2 -2 33 9 17 62
102 117 187 144 221 227 363 317 540 249 494 358 903 306 1158 -50 247 -182
488 -321 587 -290 207 -755 256 -1049 110 -187 -92 -396 -349 -396 -485 0 -41
4 -52 26 -69 15 -12 38 -21 53 -21 89 0 152 -53 183 -153 42 -138 6 -359 -85
-521 -36 -65 -56 -83 -81 -73 -14 6 -15 10 -5 29 39 73 -48 345 -164 511 -124
178 -535 367 -797 367 -453 0 -770 -343 -832 -901 -9 -83 -9 -112 0 -121 8 -8
40 0 129 34 65 26 142 53 172 62 68 20 163 21 200 2 68 -36 134 -148 173 -295
29 -111 29 -287 -1 -401 -55 -207 -183 -405 -361 -554 -204 -172 -483 -306
-696 -335 -196 -27 -662 -31 -809 -6 -241 40 -365 86 -777 289 -162 81 -302
144 -309 141 -46 -19 -290 -441 -345 -597 -30 -86 -6 -158 81 -243 81 -80 172
-120 325 -145 158 -26 170 -28 170 -40 0 -15 -79 -57 -190 -101 -58 -23 -107
-44 -109 -45 -2 -2 33 -48 77 -103 101 -125 141 -187 209 -323 173 -347 202
-641 103 -1046 -83 -338 -183 -512 -455 -791 -238 -244 -434 -397 -669 -522
-194 -104 -235 -155 -257 -321 -15 -110 -6 -375 16 -453 42 -148 98 -239 238
-382 l100 -102 124 85 c198 137 347 196 528 212 143 13 236 -1 335 -49 74 -37
101 -58 205 -163 217 -219 270 -358 269 -701 0 -202 -11 -263 -69 -398 -19
-44 -35 -84 -35 -89 0 -11 965 -10 1080 2 217 22 307 67 366 182 45 88 56 166
51 348 -6 242 -48 402 -204 778 -3 8 50 -32 118 -88 675 -554 1275 -884 1930
-1059 385 -103 520 -121 941 -128 346 -6 609 5 776 32 94 15 315 66 310 71 -2
1 -61 23 -131 48 -154 53 -263 116 -365 211 -94 87 -144 155 -192 259 -51 111
-60 155 -60 300 0 68 -3 132 -6 140 -4 9 -43 34 -88 56 -214 103 -456 354
-568 587 -88 182 -129 413 -108 603 28 253 113 417 285 550 31 24 52 46 48 50
-4 4 -57 19 -118 35 -422 107 -866 387 -988 621 -36 69 -47 114 -28 114 5 0
57 -30 117 -66 316 -192 627 -299 1064 -365 207 -32 505 -32 675 -1 287 53
501 132 910 335 281 140 412 195 557 236 262 73 483 66 757 -25 127 -42 132
-39 157 75 27 124 103 296 226 509 155 269 227 460 214 566 -9 72 -53 144
-131 213 -174 156 -356 218 -726 248 -205 17 -300 31 -325 49 -15 11 -15 15
-1 42 31 59 211 213 385 328 265 174 510 253 752 244 213 -9 310 -77 310 -220
0 -96 79 -89 310 27 246 123 380 243 438 390 65 166 47 437 -42 630 -44 96
-85 155 -165 239 -181 189 -419 290 -771 326 -63 7 -121 16 -128 19 -14 8 277
46 423 56 99 7 289 -7 401 -30 323 -67 564 -242 689 -499 62 -128 85 -230 92
-406 12 -345 -93 -632 -305 -832 -79 -75 -197 -139 -289 -158 -118 -25 -249
-63 -308 -89 -185 -84 -188 -297 -7 -493 132 -143 314 -220 516 -219 130 0
215 24 368 102 155 78 179 78 113 2 -73 -85 -355 -283 -460 -322 -64 -24 -193
-38 -425 -46 -96 -3 -236 -10 -310 -16 -123 -9 -141 -13 -207 -45 -135 -65
-323 -270 -411 -447 -80 -162 -82 -243 -9 -389 79 -160 153 -240 351 -381 16
-12 6 -15 -81 -20 -129 -8 -242 -44 -340 -110 -84 -56 -133 -110 -174 -189
-138 -272 -18 -577 291 -737 117 -61 231 -90 400 -102 80 -6 162 -15 184 -21
145 -37 -268 -66 -471 -33 -335 54 -615 242 -709 474 -16 40 -31 108 -40 180
-17 141 -35 205 -81 294 -68 129 -188 220 -358 269 -73 21 -99 23 -315 23
l-235 0 -94 -33 c-51 -18 -193 -79 -315 -136 -375 -176 -417 -186 -909 -211
-164 -8 -303 -17 -308 -20 -5 -3 -51 -58 -102 -121 -146 -179 -167 -234 -167
-441 0 -402 96 -623 398 -915 119 -115 226 -199 311 -244 80 -43 85 -55 92
-224 7 -164 28 -246 95 -361 55 -95 172 -206 264 -251 117 -56 151 -61 525
-67 l340 -6 -255 -127 c-365 -181 -580 -327 -790 -538 -212 -212 -365 -452
-449 -705 -47 -143 -62 -229 -68 -395 -11 -310 29 -441 189 -615 l55 -60 -57
-75 c-175 -231 -266 -372 -359 -559 -291 -579 -403 -1294 -340 -2166 69 -966
241 -1497 667 -2064 344 -459 759 -707 1462 -876 353 -84 446 -121 541 -212
138 -131 158 -348 44 -466 -50 -51 -105 -62 -279 -52 -228 14 -221 14 -224
-16 -8 -70 128 -301 239 -404 74 -69 193 -135 289 -161 102 -27 280 -23 403 9
271 72 518 258 671 507 123 199 183 468 158 712 -15 150 -42 250 -101 372 -79
164 -154 260 -383 487 -115 113 -208 208 -208 211 0 3 35 9 78 13 173 16 247
92 221 229 -30 160 -198 351 -394 449 -161 80 -296 105 -635 117 -214 8 -401
27 -416 43 -2 2 32 18 77 37 135 56 217 147 267 298 46 141 31 384 -28 437
-18 16 -46 20 -208 26 -334 14 -363 21 -507 114 -155 100 -255 212 -331 370
-87 179 -109 345 -79 605 10 85 21 161 24 168 4 7 38 -37 88 -115 156 -245
313 -353 510 -353 220 1 487 177 592 392 64 129 80 211 92 452 10 222 28 337
56 368 17 18 18 19 24 1 4 -10 8 -31 8 -46 3 -98 215 -437 352 -560 117 -107
234 -151 399 -150 472 0 921 313 1052 733 33 108 33 294 0 395 -44 132 -58
141 -241 153 -117 9 -139 13 -196 41 -77 38 -135 101 -167 180 -20 49 -22 73
-22 191 0 116 4 147 27 221 68 224 230 512 412 735 70 85 347 384 356 384 3 0
14 -53 24 -117 27 -188 44 -252 90 -348 63 -130 143 -207 265 -252 200 -74
380 -4 660 255 181 169 317 350 410 544 58 123 81 191 115 346 15 64 28 118
30 120 10 10 14 -129 5 -208 -30 -292 -171 -565 -414 -805 -115 -113 -222
-193 -349 -260 -56 -30 -87 -53 -87 -63 0 -9 12 -66 26 -127 68 -293 91 -561
74 -858 -23 -394 -65 -583 -181 -807 -85 -165 -176 -287 -319 -430 -139 -140
-258 -227 -403 -295 -197 -92 -305 -93 -551 -5 -112 40 -154 38 -261 -15 -198
-98 -301 -263 -312 -501 -12 -240 65 -440 237 -616 136 -139 216 -166 564
-193 103 -7 190 -16 193 -19 3 -2 -22 -40 -54 -83 -293 -385 -362 -588 -350
-1028 8 -275 45 -431 156 -649 53 -103 209 -352 216 -344 1 2 28 65 58 140
113 276 191 412 323 559 81 89 224 225 224 213 0 -5 -50 -72 -111 -149 -255
-323 -362 -527 -403 -764 -20 -117 -20 -227 -1 -351 18 -120 37 -185 85 -285
215 -452 759 -604 1205 -337 278 166 517 490 475 644 -14 49 -40 68 -109 83
-33 7 -81 25 -106 40 -62 36 -153 129 -187 192 -35 64 -52 174 -44 283 16 230
84 353 506 920 390 523 577 817 765 1195 282 571 430 1103 497 1785 21 216 18
984 -5 1175 -45 371 -100 570 -290 1040 -36 88 -68 171 -72 185 -7 23 -7 24
10 10 58 -48 234 -413 347 -720 102 -279 192 -417 296 -457 66 -25 170 -23
247 7 166 64 297 293 336 588 16 123 6 400 -20 526 -91 445 -313 822 -708
1207 -203 198 -328 291 -713 534 -61 39 -119 79 -128 89 -16 18 -16 19 18 13
59 -11 314 -144 446 -233 69 -46 127 -84 128 -84 2 0 20 41 41 91 46 112 132
229 210 287 97 71 116 74 512 71 255 -2 360 1 393 10 35 10 63 30 126 95 129
129 177 244 176 420 -1 128 -26 228 -92 362 -112 231 -264 376 -485 465 -128
51 -244 70 -470 77 l-200 7 219 38 c248 44 361 73 456 119 279 135 366 555
184 887 -103 188 -284 348 -454 402 -91 29 -241 35 -356 15 -375 -65 -646
-255 -896 -630 -151 -226 -364 -466 -897 -1016 -461 -475 -593 -623 -746 -833
-38 -54 -73 -97 -77 -97 -18 0 -4 34 63 151 176 307 387 579 764 984 700 751
1067 1329 1315 2075 179 537 233 875 234 1465 0 614 -53 942 -224 1378 -349
889 -1026 1532 -1915 1816 -186 60 -394 98 -645 120 -171 15 -478 20 -625 11z
m504 -605 c571 -64 994 -272 1401 -691 420 -433 586 -855 567 -1448 -12 -401
-124 -804 -318 -1149 -148 -262 -370 -569 -395 -545 -9 10 29 76 137 240 185
282 323 599 415 957 131 510 104 873 -96 1290 -334 691 -1085 1210 -1855 1281
-145 13 -473 13 -611 -1 -96 -9 -193 -25 -274 -44 -50 -12 43 34 120 59 67 21
215 50 310 59 104 11 478 5 599 -8z m-1571 -344 c-1 -6 -82 -72 -178 -147
-443 -347 -584 -505 -1024 -1144 -258 -373 -393 -545 -586 -744 -353 -364
-687 -552 -1176 -660 -161 -36 -244 -46 -214 -26 8 6 107 40 220 76 316 103
474 176 683 316 370 249 678 587 1152 1263 399 570 488 661 954 977 132 90
178 114 169 89z m-3074 -1102 c-98 -275 -249 -503 -494 -750 -189 -189 -342
-305 -530 -399 -102 -51 -242 -112 -246 -107 -8 8 47 48 173 126 73 46 166
109 208 140 122 94 300 258 408 376 191 209 294 350 402 545 99 181 128 206
79 69z m-3153 -2207 c152 -99 335 -255 729 -618 357 -330 572 -510 739 -618
53 -34 103 -71 111 -81 52 -63 -231 65 -425 192 -269 178 -442 328 -886 772
-447 447 -480 491 -268 353z m9926 -39 c-237 -469 -678 -972 -1197 -1365 -199
-150 -623 -428 -635 -416 -2 2 85 73 193 158 474 372 707 573 988 854 241 242
350 371 484 576 134 205 204 303 208 292 2 -6 -17 -50 -41 -99z m-4857 -255
c-36 -30 -249 -131 -355 -168 -561 -196 -1248 -229 -1821 -89 -175 42 -388
113 -452 150 -30 17 -52 33 -49 35 2 3 49 -8 103 -24 312 -93 654 -141 1059
-149 571 -11 944 49 1395 225 58 23 114 41 125 41 18 0 18 -1 -5 -21z m-4652
-1756 c42 -33 178 -126 302 -209 545 -363 783 -485 1390 -715 257 -97 370
-146 370 -160 0 -45 -741 199 -1065 351 -235 111 -690 419 -937 635 -78 68
-159 156 -143 156 3 0 41 -26 83 -58z m-1298 -747 c44 -181 125 -426 169 -515
49 -99 121 -208 199 -300 35 -41 86 -101 113 -134 28 -32 48 -61 45 -63 -12
-12 -96 50 -162 119 -183 191 -341 503 -399 790 -17 85 -21 258 -6 243 6 -6
24 -68 41 -140z m5663 -247 c56 -34 165 -92 242 -129 368 -176 590 -222 1270
-264 143 -9 261 -18 263 -19 1 -2 -28 -6 -65 -10 -311 -30 -382 -36 -484 -36
-330 0 -594 65 -946 235 -209 101 -381 216 -414 277 -9 18 -8 19 11 13 11 -4
67 -34 123 -67z m3242 -1574 c-20 -16 -164 -97 -430 -244 -791 -437 -1363
-906 -1777 -1457 -178 -237 -270 -399 -478 -840 -85 -180 -94 -139 -14 63 92
233 280 597 410 795 236 359 618 747 986 1002 213 147 900 521 1190 648 117
50 148 60 113 33z m-2645 -868 c0 -10 -102 -127 -206 -236 -266 -281 -412
-489 -593 -847 -94 -187 -120 -230 -121 -202 0 31 128 328 221 510 112 220
227 370 426 555 187 174 273 243 273 220z m4639 -2151 c4 -944 -225 -1604
-793 -2290 -159 -192 -446 -478 -463 -461 -12 12 44 87 196 261 282 326 563
787 719 1181 155 391 280 924 302 1285 5 85 12 163 16 174 15 37 23 -16 23
-150z m-735 -532 c-30 -96 -149 -323 -243 -465 -188 -282 -396 -508 -573 -623
-52 -33 -28 2 90 131 290 319 408 478 597 804 89 154 135 224 142 216 3 -3 -3
-31 -13 -63z m-4967 -3128 c345 -289 489 -379 739 -460 60 -20 164 -45 231
-57 68 -12 121 -23 120 -24 -8 -8 -263 19 -332 36 -253 59 -529 208 -712 383
-71 68 -143 159 -143 180 0 17 25 2 97 -58z"/>
<path d="M20884 28869 c-538 -16 -1041 -58 -1659 -140 -550 -73 -885 -133
-980 -178 -148 -69 -208 -183 -156 -297 25 -54 79 -97 171 -135 41 -17 83 -38
93 -47 27 -24 20 -55 -19 -93 -20 -18 -45 -52 -55 -74 -37 -83 -34 -234 7
-321 31 -64 52 -69 294 -68 233 1 323 7 1230 89 1518 137 1857 137 3600 -5
858 -70 1065 -83 1230 -78 130 3 151 7 195 28 27 14 63 42 79 63 29 36 31 45
31 120 0 71 -4 91 -32 149 -17 37 -51 87 -74 113 -33 35 -41 50 -33 62 5 8 54
40 109 70 157 86 201 138 193 224 -10 97 -96 180 -230 224 -136 43 -407 90
-839 145 -1006 126 -2132 180 -3155 149z m877 -423 c37 -8 85 -24 106 -35 89
-45 152 -155 119 -207 -36 -54 -171 -93 -351 -101 -204 -9 -354 24 -422 93
-44 42 -44 81 -1 129 90 104 355 162 549 121z m1175 -95 c80 -36 144 -108 144
-163 0 -38 -27 -65 -83 -84 -167 -56 -357 19 -357 141 0 114 153 169 296 106z
m-2432 -10 c54 -51 36 -120 -48 -178 -100 -69 -267 -90 -353 -45 -24 12 -43
24 -43 26 0 3 -3 11 -6 20 -3 9 11 33 37 61 92 100 197 147 316 143 59 -3 76
-7 97 -27z m-1166 -131 c20 -7 32 -19 32 -30 0 -24 -102 -116 -181 -163 -68
-39 -103 -45 -174 -26 -47 12 -275 120 -275 129 0 4 17 14 38 23 20 8 65 27
99 42 35 14 89 30 120 35 78 12 300 6 341 -10z m4841 -2 c90 -16 174 -46 206
-73 l30 -25 -40 -35 c-22 -20 -69 -50 -104 -68 -120 -59 -213 -39 -364 82 -85
68 -97 85 -75 107 33 33 203 39 347 12z"/>
<path d="M21090 27504 c-949 -34 -1145 -41 -1940 -74 -712 -30 -870 -44 -955
-87 -72 -37 -180 -121 -252 -196 -174 -181 -304 -431 -370 -707 -28 -117 -23
-319 11 -489 111 -545 370 -914 876 -1246 454 -299 1061 -536 2090 -818 773
-212 893 -226 1335 -152 1259 212 2390 609 2973 1045 106 79 303 268 385 370
184 228 317 497 346 698 18 125 16 474 -4 607 -42 279 -164 500 -383 692 -254
222 -416 273 -872 273 -179 0 -474 12 -1020 40 -212 11 -477 25 -590 31 -196
10 -1432 20 -1630 13z m-2060 -392 c0 -4 -25 -40 -55 -80 -96 -128 -189 -317
-258 -523 -63 -190 -72 -251 -71 -474 0 -177 3 -214 27 -327 72 -342 219 -651
413 -871 134 -152 164 -188 164 -198 0 -29 -202 133 -350 281 -259 258 -416
546 -491 901 -30 140 -32 393 -5 519 69 320 251 575 532 744 56 34 94 45 94
28z m5214 -26 c165 -94 291 -226 383 -403 186 -356 207 -701 66 -1107 -128
-368 -355 -668 -663 -876 l-125 -84 53 60 c193 217 267 318 350 482 235 461
285 992 136 1442 -45 135 -105 248 -204 384 -107 146 -106 164 4 102z m-4044
-16 c-6 -10 -33 -45 -61 -77 -106 -119 -176 -249 -240 -446 -120 -363 -135
-843 -39 -1192 46 -164 159 -418 255 -570 53 -84 105 -178 105 -190 0 -3 -7
-5 -15 -5 -41 0 -298 287 -402 448 -94 145 -181 368 -224 572 -30 141 -33 430
-6 560 60 285 177 507 376 713 141 145 287 255 251 187z m2925 -52 c185 -170
316 -352 406 -563 77 -178 111 -428 91 -654 -35 -388 -177 -737 -414 -1018
-108 -128 -260 -263 -295 -263 -19 0 -3 30 62 110 163 202 282 443 345 702 49
202 63 350 57 617 -5 254 -17 350 -67 539 -53 198 -110 321 -221 481 -32 46
-59 90 -59 98 0 26 29 12 95 -49z m-2098 -160 c-4 -35 -19 -108 -36 -164 -53
-185 -85 -429 -103 -796 -15 -303 -5 -447 48 -681 49 -221 141 -497 214 -642
33 -65 60 -120 60 -122 0 -11 -102 87 -133 127 -139 184 -283 550 -339 860
-21 117 -18 554 5 700 45 291 157 634 243 747 38 50 48 43 41 -29z m1208 28
c61 -80 148 -318 194 -530 68 -311 68 -724 1 -1051 -24 -119 -79 -298 -127
-415 -41 -100 -158 -319 -191 -358 l-23 -27 6 50 c5 49 18 95 104 375 46 153
82 317 108 500 25 180 25 675 0 845 -26 171 -63 361 -98 498 -29 112 -32 147
-10 147 6 0 22 -15 36 -34z"/>
<path d="M19156 24083 c-3 -21 -8 -99 -11 -173 -13 -289 -60 -461 -171 -633
-117 -180 -276 -288 -450 -304 -99 -9 -156 16 -456 199 -370 227 -609 203
-798 -78 -87 -130 -120 -265 -120 -483 0 -177 24 -287 91 -418 l52 -103 494 0
c271 0 493 2 493 5 0 3 -22 38 -49 78 -70 105 -188 296 -261 422 -35 61 -70
120 -78 133 -32 50 1 15 105 -111 540 -650 1317 -1246 2028 -1557 284 -124
333 -159 447 -319 231 -323 477 -516 823 -646 154 -57 281 -87 340 -80 69 8
228 58 334 105 283 124 596 371 746 590 33 47 93 119 135 161 65 65 91 84 190
132 63 30 207 100 320 155 223 108 495 260 631 353 338 232 927 781 1185 1107
43 53 84 104 92 112 38 39 -168 -306 -313 -522 l-75 -113 437 -3 c450 -2 527
3 573 36 14 10 39 42 57 72 161 265 99 736 -128 975 -210 221 -368 217 -734
-18 -140 -90 -349 -197 -385 -197 -67 0 -255 88 -352 165 -112 90 -209 252
-248 416 -21 92 -40 269 -40 394 0 82 -12 151 -27 166 -5 5 -53 -6 -114 -26
-497 -169 -1179 -346 -1807 -470 -232 -47 -427 -87 -432 -90 -38 -23 -48 -242
-60 -1220 -13 -1120 -12 -1064 -21 -855 -18 402 -58 1807 -59 2068 l0 32 -74
0 c-303 0 -956 157 -1865 449 -205 67 -388 123 -406 127 -32 6 -33 5 -39 -33z"/>
<path d="M13332 19268 c2 -3605 14 -6720 27 -7318 14 -621 35 -831 127 -1285
258 -1261 825 -2286 1730 -3127 611 -567 1134 -883 2019 -1218 465 -176 996
-341 1895 -590 426 -118 671 -190 900 -267 589 -198 920 -392 1206 -711 136
-152 230 -279 304 -414 l64 -117 71 138 c81 158 159 263 303 407 269 271 541
450 928 613 197 82 511 180 1019 316 729 196 1067 291 1355 381 1354 424 2078
834 2904 1644 302 297 455 479 651 775 572 864 925 1932 965 2920 19 470 30
2241 36 6253 l7 4122 -2592 0 -2593 0 -184 -162 c-102 -89 -241 -203 -310
-253 -230 -168 -550 -348 -879 -495 -327 -146 -379 -183 -489 -348 -169 -253
-398 -443 -728 -605 -262 -128 -347 -157 -470 -157 -123 0 -252 43 -523 175
-316 154 -513 320 -680 572 -32 48 -82 118 -112 155 -44 56 -60 69 -105 83
-124 41 -520 230 -777 371 -243 135 -436 275 -751 547 l-135 116 -2593 1
-2592 0 2 -2522z m2806 824 c120 -33 178 -68 282 -171 153 -151 229 -199 458
-290 204 -81 290 -138 312 -207 19 -56 4 -134 -43 -227 -32 -65 -60 -101 -131
-173 -75 -74 -100 -93 -141 -105 l-50 -14 0 -145 c0 -165 -9 -192 -75 -229
-59 -33 -114 -41 -345 -51 -307 -13 -332 -23 -300 -120 25 -76 336 -602 368
-622 25 -16 75 -7 119 21 64 41 142 120 313 321 427 501 571 587 712 426 136
-157 106 -343 -99 -603 -35 -44 -131 -156 -215 -249 -174 -194 -240 -274 -324
-396 -72 -105 -99 -161 -99 -208 0 -32 6 -38 58 -71 114 -73 309 -157 544
-235 222 -73 269 -68 673 76 160 57 442 173 457 188 3 4 -57 95 -134 202 -214
298 -292 395 -463 585 -117 130 -168 197 -202 270 -26 56 -28 68 -28 190 1 73
6 148 13 172 26 87 103 142 198 143 141 0 261 -96 474 -380 35 -47 95 -123
134 -170 77 -94 288 -310 302 -310 14 0 345 547 367 606 41 110 10 130 -233
151 -222 19 -255 29 -318 98 -49 53 -92 127 -92 157 0 8 11 36 25 62 43 82 38
90 -99 157 -153 75 -234 177 -258 323 -8 51 -8 80 1 119 24 103 76 143 342
257 225 97 269 124 388 235 54 50 119 102 147 117 124 67 362 105 553 87 106
-10 245 -53 339 -105 272 -152 525 -464 606 -747 50 -173 43 -343 -21 -538
-42 -128 -39 -233 15 -459 63 -268 66 -304 58 -725 -8 -398 -3 -475 39 -651
37 -157 110 -329 303 -719 229 -464 262 -554 262 -731 0 -116 -18 -212 -81
-422 -60 -205 -79 -300 -79 -406 0 -136 28 -212 150 -401 38 -60 78 -130 87
-154 l17 -44 -44 -85 c-117 -229 -510 -767 -658 -902 -177 -161 -424 -281
-550 -267 -71 8 -184 70 -254 140 -86 85 -123 154 -123 232 0 122 56 174 259
241 61 20 134 49 162 65 105 59 277 274 310 385 32 110 16 135 -236 384 -159
157 -220 225 -263 292 -31 47 -65 89 -77 93 -31 10 -69 -20 -93 -73 -29 -64
-35 -229 -13 -325 30 -127 16 -176 -77 -275 -89 -93 -110 -99 -455 -112 -318
-13 -491 -32 -596 -66 -45 -14 -110 -28 -146 -31 -111 -9 -216 41 -331 158
-164 166 -141 320 65 439 73 42 155 54 325 46 451 -20 439 -20 466 -2 41 27
34 82 -34 264 -74 200 -93 276 -95 382 -1 107 15 173 66 277 78 161 201 246
463 318 197 55 285 85 285 100 0 36 -520 562 -643 649 -93 66 -134 77 -244 66
-227 -24 -463 -115 -698 -271 -145 -95 -220 -130 -283 -131 -61 0 -81 10 -157
82 -33 31 -68 60 -77 63 -10 3 -31 -4 -50 -18 -91 -66 -122 -80 -188 -83 -108
-6 -177 27 -383 187 -137 106 -190 121 -585 161 l-204 21 -251 -243 c-139
-133 -302 -291 -364 -350 l-112 -108 32 -14 c18 -7 59 -25 93 -39 33 -14 100
-33 148 -41 48 -8 112 -26 141 -40 145 -66 301 -196 353 -294 90 -168 84 -343
-22 -645 -29 -84 -56 -169 -60 -190 -9 -51 10 -80 69 -102 61 -24 235 -16 355
16 57 15 116 23 180 23 83 1 102 -3 152 -26 81 -38 131 -81 200 -173 54 -72
60 -83 55 -117 -7 -50 -87 -179 -152 -243 -117 -118 -246 -138 -505 -80 -174
39 -240 45 -473 45 -122 -1 -245 4 -273 9 -134 26 -242 84 -305 163 -55 70
-57 89 -45 358 8 188 3 213 -50 218 -58 6 -183 -96 -528 -429 l-159 -154 73
-145 c137 -275 214 -352 408 -414 46 -15 102 -38 123 -52 83 -52 162 -155 180
-232 26 -116 -115 -251 -317 -302 -155 -40 -292 -21 -430 60 -163 96 -457 456
-694 850 -144 238 -144 311 -2 552 83 140 105 210 105 323 1 106 -21 194 -90
358 -81 197 -110 349 -99 525 9 154 43 244 247 649 251 502 331 716 359 963 6
55 9 262 8 495 -3 436 -4 421 67 790 13 72 28 175 31 231 6 91 5 106 -17 160
-21 53 -23 75 -24 224 0 260 35 369 182 559 89 115 280 305 373 370 138 97
318 178 470 212 113 25 330 20 438 -9z m8162 -1057 c361 -726 1030 -2110 1030
-2131 0 -8 -241 -497 -535 -1087 -494 -990 -769 -1526 -814 -1586 l-18 -24
-47 79 c-61 103 -768 1522 -975 1955 -258 543 -305 649 -305 694 1 47 113 295
486 1070 466 965 547 1135 610 1270 161 342 189 400 205 418 17 18 18 18 31 0
8 -10 157 -306 332 -658z m3431 -77 c536 -1071 979 -1984 979 -2019 0 -11
-517 -1067 -1043 -2129 l-314 -634 -236 464 c-243 479 -875 1759 -1034 2094
l-90 189 57 131 c241 548 1272 2646 1301 2646 5 0 176 -334 380 -742z m-9916
-5608 c3 -20 1 -48 -4 -63 -9 -24 -8 -27 9 -27 22 0 52 -41 137 -190 214 -375
513 -1013 516 -1102 1 -26 7 -38 19 -41 39 -11 182 -271 430 -781 109 -225
198 -412 198 -416 0 -10 -1360 -2752 -1371 -2764 -8 -9 -239 452 -901 1799
-160 325 -324 661 -365 749 l-75 159 11 55 c26 130 137 376 641 1417 369 763
553 1151 626 1319 l38 88 42 -84 c23 -46 45 -99 49 -118z m8455 -1135 c568
-1139 758 -1530 763 -1565 2 -16 -1363 -2770 -1374 -2770 -10 0 -1291 2602
-1320 2683 -33 92 31 242 616 1452 389 804 499 1034 580 1215 26 58 61 131 78
163 29 55 32 58 45 40 8 -10 283 -558 612 -1218z"/>
<path d="M16120 19640 c-40 -40 -39 -92 1 -122 59 -44 158 -28 180 29 27 73
-123 151 -181 93z"/>
<path d="M19250 19633 c-34 -24 -58 -53 -65 -83 -5 -20 0 -31 24 -52 70 -62
181 -19 181 69 0 72 -78 109 -140 66z"/>
</g>
</svg>
