<?xml version="1.0" standalone="no"?>
<!DOCTYPE svg PUBLIC "-//W3C//DTD SVG 20010904//EN"
 "http://www.w3.org/TR/2001/REC-SVG-20010904/DTD/svg10.dtd">
<svg version="1.0" xmlns="http://www.w3.org/2000/svg"
 width="1024.000000pt" height="1024.000000pt" viewBox="0 0 1024.000000 1024.000000"
 preserveAspectRatio="xMidYMid meet">

<g transform="translate(0.000000,1024.000000) scale(0.100000,-0.100000)"
fill="#001f4d" stroke="none">
<path d="M5011 9800 c-24 -5 -60 -18 -80 -28 -30 -16 -36 -25 -36 -51 l0 -31
-61 0 c-150 0 -264 -82 -264 -189 0 -36 28 -111 42 -111 5 0 6 4 3 10 -10 17
40 58 86 70 61 17 120 7 222 -36 84 -36 114 -56 49 -33 -26 9 -45 7 -106 -11
-43 -13 -91 -21 -115 -18 -48 4 -51 -3 -15 -31 32 -25 80 -27 150 -6 34 10 60
12 87 5 55 -12 60 -23 7 -15 -32 4 -63 1 -110 -14 -36 -12 -73 -21 -82 -21
-19 0 -24 -15 -8 -25 26 -16 126 -35 156 -29 24 4 42 1 59 -10 37 -25 34 -77
-10 -152 -43 -71 -82 -106 -152 -136 -29 -12 -53 -25 -53 -30 0 -4 19 -8 42
-8 l42 0 -71 -72 c-78 -80 -143 -178 -118 -178 11 0 5 -15 -20 -52 -37 -58
-61 -143 -50 -186 6 -25 5 -26 -11 -10 -11 11 -19 38 -22 72 l-4 56 -49 0
c-93 0 -274 74 -346 142 -34 31 -64 101 -65 148 0 49 22 77 98 120 70 39 97
79 102 151 6 79 -11 120 -76 190 -62 67 -94 86 -220 130 -114 41 -274 123
-420 216 -135 87 -170 102 -183 82 -22 -35 25 -169 81 -233 40 -45 133 -113
238 -172 103 -59 85 -55 -41 7 -142 72 -265 147 -535 327 -166 110 -236 152
-244 144 -17 -17 0 -95 38 -171 53 -107 146 -184 411 -340 67 -39 151 -85 187
-101 36 -17 66 -32 66 -34 0 -6 -33 4 -250 79 -358 124 -529 207 -757 371 -21
15 -22 15 -29 -22 -15 -82 33 -184 136 -284 132 -130 376 -243 705 -326 151
-38 145 -39 -76 -19 -333 31 -576 71 -761 124 l-68 20 0 -27 c0 -41 53 -124
112 -176 65 -58 206 -128 311 -155 148 -38 454 -51 642 -26 89 12 -6 -13 -145
-39 -229 -42 -400 -65 -605 -82 -222 -18 -235 -20 -235 -38 0 -22 79 -104 126
-132 187 -110 498 -92 871 50 65 25 119 44 120 42 5 -5 -438 -243 -548 -295
-57 -26 -156 -68 -219 -91 -63 -24 -117 -44 -119 -46 -11 -10 47 -55 102 -80
58 -27 71 -29 182 -29 110 1 127 4 203 33 137 52 261 126 427 256 l90 70 -45
-54 c-96 -115 -267 -284 -393 -387 -208 -171 -196 -159 -172 -177 36 -27 117
-38 187 -26 113 21 208 79 339 210 66 65 145 157 184 213 38 53 70 95 73 93
14 -14 -221 -422 -329 -573 -32 -45 -59 -84 -59 -87 0 -12 129 -5 172 9 63 22
152 97 220 185 59 76 142 228 173 315 20 55 37 82 28 44 -36 -156 -121 -408
-178 -525 l-32 -66 51 7 c105 13 179 64 244 168 46 73 97 194 116 274 19 78
19 34 1 -117 -16 -127 -35 -230 -50 -264 -8 -17 -5 -18 31 -12 55 11 90 31
137 81 56 58 105 141 138 233 32 89 43 81 37 -26 -4 -71 -8 -82 -107 -264 -48
-88 -65 -167 -56 -248 6 -52 9 -58 40 -73 50 -24 69 -58 62 -113 -6 -54 -41
-97 -102 -125 -69 -32 -119 -21 -167 36 -25 29 -23 30 28 30 38 0 50 5 71 30
21 24 24 36 20 78 -8 85 -88 134 -165 101 -19 -8 -36 -13 -37 -12 -1 2 -7 18
-15 36 -20 51 -49 82 -76 82 -33 0 -93 -26 -121 -52 l-22 -21 68 -63 c65 -61
68 -65 74 -119 7 -66 26 -99 71 -126 22 -13 39 -34 51 -64 9 -25 21 -47 26
-51 5 -3 55 4 112 15 450 92 889 91 1336 0 51 -10 97 -19 102 -19 5 0 20 21
33 48 13 26 38 57 56 70 44 33 70 80 70 128 0 38 5 47 71 109 l71 67 -26 27
c-27 28 -84 51 -125 51 -23 0 -65 -56 -76 -102 l-7 -26 -34 20 c-46 27 -96 18
-141 -27 -27 -27 -33 -41 -33 -75 0 -23 5 -50 10 -61 17 -31 66 -51 106 -43
l36 7 -17 -27 c-21 -32 -83 -66 -120 -66 -66 0 -136 58 -155 129 -15 55 3 97
51 121 45 24 55 57 45 155 -8 84 -26 132 -82 221 -61 99 -84 162 -83 232 1 92
12 103 33 35 35 -112 118 -243 190 -298 26 -20 126 -51 126 -39 0 1 -9 40 -20
86 -16 68 -51 325 -49 363 0 6 11 -28 25 -75 14 -47 45 -125 69 -175 78 -157
168 -236 288 -250 l59 -7 -32 62 c-65 129 -197 504 -187 533 1 5 15 -22 31
-61 75 -192 240 -409 356 -467 60 -31 191 -48 204 -27 4 6 -13 37 -37 69 -75
99 -181 263 -249 383 -78 139 -120 220 -113 220 2 0 42 -51 89 -112 149 -200
318 -351 444 -398 85 -32 213 -26 266 13 17 13 8 23 -115 123 -74 60 -185 159
-248 219 -122 118 -270 279 -234 255 12 -8 69 -50 128 -93 176 -129 354 -222
475 -248 86 -18 216 -8 281 23 56 26 99 59 99 77 0 5 -17 15 -37 21 -77 25
-283 110 -364 150 -106 53 -489 261 -489 266 0 2 12 -1 28 -7 284 -112 461
-154 657 -154 160 0 245 20 331 77 45 31 114 108 114 128 0 12 -28 15 -255 34
-104 9 -253 25 -330 36 -160 24 -436 77 -444 87 -3 3 8 3 24 -1 67 -14 353
-18 460 -7 220 23 407 91 511 185 51 45 114 147 114 184 0 19 -1 19 -67 0
-202 -56 -618 -119 -878 -133 l-100 -5 110 26 c346 81 609 206 748 353 92 98
133 197 113 276 l-7 26 -57 -44 c-122 -93 -310 -194 -502 -270 -104 -41 -448
-157 -465 -157 -4 0 49 29 117 63 308 159 499 302 559 418 26 52 39 169 19
169 -8 0 -115 -67 -239 -149 -226 -149 -415 -263 -543 -327 -96 -48 -97 -42
-1 15 192 114 257 184 283 307 5 27 12 59 15 72 10 44 -40 25 -210 -83 -106
-67 -319 -172 -425 -210 -100 -35 -146 -63 -203 -124 -58 -62 -77 -104 -77
-172 0 -77 29 -121 118 -176 43 -27 78 -56 83 -70 22 -59 -1 -132 -61 -191
-74 -75 -251 -145 -354 -141 l-61 3 -3 -55 c-2 -29 -9 -63 -15 -74 -10 -17
-13 -8 -18 54 -6 65 -12 80 -53 140 -25 36 -52 83 -61 105 l-16 38 45 -4 c45
-3 60 4 32 15 -26 10 -47 66 -53 139 -6 66 -5 70 13 65 10 -3 34 -9 53 -12
l33 -7 -21 28 c-26 37 -40 102 -41 187 l0 68 38 -7 37 -7 -21 24 c-36 41 -45
66 -54 167 -9 106 -20 145 -52 179 l-20 21 30 16 c35 18 53 51 22 41 -11 -3
-40 3 -67 15 -42 19 -46 23 -27 30 25 10 74 66 74 86 0 13 -4 13 -27 0 -53
-27 -106 -28 -194 -6 -98 24 -216 33 -278 20z m192 -157 c27 -8 46 -17 43 -20
-2 -3 -21 1 -42 7 -40 13 -191 7 -206 -8 -12 -12 20 -52 42 -52 11 0 25 9 32
20 17 26 28 26 21 -1 -7 -26 -45 -51 -65 -44 -9 4 -24 22 -34 40 -10 19 -30
39 -44 44 -23 9 -22 10 15 10 22 1 63 8 90 15 53 15 71 13 148 -11z m-1 -2086
c28 -21 48 -47 57 -73 12 -34 21 -43 54 -55 51 -18 97 -74 104 -128 5 -33 10
-41 27 -41 43 0 50 -13 37 -67 -38 -158 -215 -189 -295 -52 l-19 32 24 -7 c74
-22 94 -24 123 -12 98 41 99 168 4 226 -18 11 -47 20 -63 20 -29 0 -31 2 -28
33 5 42 -27 92 -72 114 -33 16 -37 16 -70 0 -45 -22 -77 -72 -72 -114 3 -31 1
-33 -31 -33 -95 0 -161 -105 -121 -193 24 -54 121 -78 174 -43 35 23 34 -2 -1
-44 -35 -41 -77 -62 -131 -63 -70 -1 -134 61 -148 143 -8 49 -2 60 34 60 25 0
29 4 34 40 7 54 40 96 98 125 27 14 49 30 49 36 0 27 36 82 69 105 53 36 108
33 163 -9z"/>
<path d="M1850 7475 c-258 -51 -465 -242 -552 -507 -27 -81 -31 -112 -35 -233
-12 -345 102 -623 368 -900 89 -93 199 -242 199 -269 0 -6 -18 16 -39 49 -21
33 -47 67 -57 76 -64 53 -257 254 -296 309 -26 36 -60 80 -75 99 -64 78 -218
111 -295 63 -71 -44 -105 -173 -65 -248 19 -37 77 -64 140 -65 82 -2 97 -17
17 -18 -80 -1 -158 -29 -192 -67 -28 -32 -58 -107 -58 -147 0 -96 59 -144 158
-130 86 13 137 0 167 -45 14 -20 25 -42 25 -49 0 -18 0 -18 66 22 78 47 92 45
18 -3 -208 -135 -342 -385 -304 -568 21 -99 84 -133 149 -78 22 18 37 46 56
107 14 45 41 107 60 137 40 64 45 60 11 -8 -103 -206 -113 -512 -25 -797 47
-155 115 -283 229 -433 146 -192 167 -242 136 -316 -11 -28 -26 -42 -56 -54
-30 -13 -40 -23 -40 -40 0 -60 82 -143 166 -168 127 -37 240 53 252 202 6 68
-32 151 -109 244 -37 45 -44 58 -24 42 56 -44 113 -126 135 -196 l13 -40 20
25 c38 46 68 127 74 198 9 102 -10 153 -104 280 -11 14 -5 16 61 16 64 0 77 3
109 28 95 72 102 216 14 281 -26 19 -29 19 -75 3 -61 -22 -77 -21 -137 7 -66
30 -129 100 -172 192 -29 60 -36 89 -40 157 -5 73 4 164 23 234 5 18 -1 25
-34 42 -90 46 -161 151 -168 250 l-4 56 15 -59 c37 -142 178 -279 271 -261 57
10 101 80 92 145 -3 17 -1 30 3 30 3 0 36 -31 71 -69 81 -85 121 -163 126
-246 4 -58 2 -63 -24 -84 -21 -16 -39 -21 -69 -19 -38 2 -41 1 -52 -32 -7 -19
-12 -46 -12 -60 -1 -32 34 -108 62 -138 36 -39 113 -72 180 -78 54 -5 66 -3
97 18 40 27 99 119 101 158 1 14 5 -14 9 -62 5 -47 16 -103 26 -123 24 -50 74
-86 131 -93 59 -6 100 15 133 68 20 33 26 37 32 23 13 -34 7 -118 -11 -159
-26 -58 -76 -111 -118 -125 -21 -7 -55 -9 -86 -5 -59 8 -67 1 -67 -65 0 -52
26 -94 68 -110 41 -16 17 -23 -70 -20 -154 3 -250 -50 -252 -141 -1 -43 -1
-43 36 -46 l37 -3 -63 -62 c-76 -74 -106 -144 -106 -240 0 -101 58 -199 144
-244 45 -24 141 -23 191 2 40 20 85 75 85 104 0 13 -9 15 -44 13 -38 -3 -49 0
-71 22 -20 20 -24 32 -19 53 10 44 53 81 109 94 138 32 213 60 275 103 208
145 304 408 287 785 -9 196 -60 355 -147 453 -38 44 -39 46 -21 62 33 30 43
71 40 153 -5 106 -40 176 -133 268 -52 52 -93 81 -154 111 l-82 40 82 -3 c72
-4 89 -1 127 19 57 30 84 77 78 138 l-3 45 59 39 c69 45 111 100 132 169 28
93 16 155 -37 203 -19 19 -38 23 -123 26 -94 5 -106 8 -190 49 -80 39 -98 44
-160 44 -112 0 -175 -52 -175 -144 0 -48 -31 -89 -97 -128 -38 -22 -60 -27
-127 -29 -79 -3 -80 -3 -27 7 74 13 136 42 157 74 9 14 19 47 22 73 3 38 0 53
-19 76 -25 31 -75 56 -114 56 -25 0 -25 0 10 31 69 61 82 122 41 188 -45 70
-77 86 -189 88 -106 2 -138 13 -200 64 -43 35 -51 60 -9 29 87 -64 242 -3 242
96 0 27 -6 36 -31 50 -18 9 -47 16 -66 16 -46 0 -94 43 -130 116 -35 72 -37
171 -5 223 55 90 130 129 247 128 112 -1 150 -13 67 -21 -78 -8 -143 -45 -187
-107 -26 -36 -30 -52 -30 -105 0 -99 53 -162 154 -182 24 -5 31 -3 31 10 0 9
9 25 20 36 33 33 103 27 189 -16 68 -34 141 -93 141 -114 0 -6 -26 -10 -57
-10 -101 0 -184 -35 -217 -91 -24 -40 -20 -69 17 -121 18 -25 48 -78 65 -116
l32 -70 43 15 c77 27 156 13 287 -51 138 -67 208 -86 315 -86 107 0 203 22
288 65 38 20 71 34 73 32 2 -2 -12 -22 -32 -45 -39 -46 -96 -83 -164 -107 -25
-8 -51 -18 -58 -20 -10 -4 -5 -15 17 -40 89 -101 26 -329 -109 -390 -37 -17
-40 -21 -40 -57 0 -75 -60 -154 -135 -179 l-40 -13 55 -13 c72 -18 322 -11
402 11 168 46 338 138 463 249 67 60 79 65 46 18 -58 -81 -67 -220 -17 -269
26 -27 28 -27 181 -30 l155 -3 -15 35 c-48 115 21 276 133 305 55 15 97 4 158
-43 l47 -36 30 27 c44 42 67 98 67 171 0 71 1 70 -110 141 -80 51 -134 102
-181 172 -82 122 -79 313 5 424 14 18 26 36 26 38 0 3 -19 13 -42 22 -45 19
-45 20 15 30 42 7 107 58 107 84 0 9 -20 49 -44 88 l-43 73 -24 -19 c-38 -29
-99 -57 -177 -81 -96 -29 -251 -26 -324 7 -59 27 -134 95 -160 148 -26 50 -28
153 -4 191 20 29 79 33 108 8 14 -14 20 -14 33 -4 48 39 -26 184 -113 222 -71
32 -191 10 -250 -45 -34 -31 -62 -90 -62 -129 l0 -32 -21 21 c-31 30 -36 99
-10 140 15 23 25 31 37 26 15 -5 16 -2 11 27 -10 45 -52 99 -93 116 -53 22
-141 18 -201 -10 -97 -45 -149 -157 -123 -267 16 -71 66 -174 134 -276 29 -46
52 -83 50 -83 -3 0 -23 12 -47 26 -61 38 -131 108 -195 194 -163 221 -279 328
-435 404 -146 72 -308 93 -467 61z m305 -151 c22 -8 29 -11 15 -8 -14 3 -58 8
-97 11 -292 23 -572 -214 -573 -483 0 -104 55 -263 131 -378 37 -57 38 -59 7
-24 -128 141 -189 374 -140 535 58 191 231 338 427 362 73 10 176 3 230 -15z
m294 -146 c40 -32 85 -87 149 -180 159 -234 276 -331 447 -374 38 -10 64 -19
58 -21 -22 -8 -138 27 -213 64 -98 47 -164 115 -273 280 -80 120 -159 208
-257 286 l-35 28 33 -18 c18 -10 59 -39 91 -65z m756 -354 c42 -43 94 -84 130
-102 33 -17 54 -31 47 -32 -20 0 -92 38 -145 79 -52 38 -132 136 -152 186 -29
70 -23 75 12 10 22 -40 68 -100 108 -141z m565 -440 c-113 -114 -198 -183
-270 -219 -76 -38 -99 -38 -33 0 34 19 110 81 169 136 114 108 213 189 229
189 5 0 -38 -48 -95 -106z m-2166 -119 c45 -44 127 -116 184 -159 99 -77 131
-107 75 -71 -155 99 -298 230 -374 343 -27 41 -49 79 -49 85 0 7 19 -17 42
-53 23 -36 78 -101 122 -145z m1209 79 c116 -20 282 -14 382 15 38 11 71 18
73 16 2 -2 -21 -12 -52 -24 -172 -64 -388 -54 -580 29 -69 29 -55 33 19 4 36
-13 107 -31 158 -40z m895 -407 c-93 -86 -287 -186 -389 -201 -38 -6 -34 -3
33 23 108 41 261 123 338 181 36 27 67 49 70 49 3 0 -20 -23 -52 -52z m328
-222 c-12 -39 -30 -69 -67 -107 l-50 -53 39 53 c37 50 81 154 84 197 0 12 3 9
5 -8 2 -15 -3 -52 -11 -82z m-1337 19 c-67 -71 -250 -123 -378 -108 l-66 8
110 7 c127 9 216 33 295 83 68 42 69 42 39 10z m-657 -440 c216 -117 310 -192
391 -312 47 -71 110 -195 122 -242 3 -14 -12 13 -34 59 -99 205 -247 349 -508
496 -92 51 -113 65 -99 65 3 0 60 -30 128 -66z m581 -223 c30 -33 69 -89 86
-123 42 -89 49 -126 8 -46 -45 88 -69 122 -136 192 -31 32 -47 53 -35 48 12
-6 46 -38 77 -71z m-1157 -633 c41 -151 122 -300 231 -428 l47 -55 -43 40
c-64 59 -158 179 -190 244 -16 31 -41 94 -56 141 -24 73 -28 104 -31 225 l-3
140 14 -122 c8 -68 22 -151 31 -185z m212 -38 c20 -30 61 -82 91 -115 53 -56
54 -58 13 -26 -55 43 -101 100 -146 182 -39 71 -49 106 -14 49 11 -19 37 -60
56 -90z m1133 -639 c-45 -63 -155 -131 -211 -131 -17 1 -8 6 27 19 66 22 119
57 163 108 40 46 52 48 21 4z"/>
<path d="M8089 7476 c-81 -17 -170 -52 -247 -97 -80 -48 -224 -194 -325 -329
-46 -63 -109 -138 -138 -166 -53 -50 -111 -94 -123 -94 -4 0 12 28 35 61 88
131 149 280 149 368 0 56 -37 139 -74 169 -79 61 -212 70 -281 18 -68 -52 -98
-126 -50 -126 29 0 45 -26 45 -74 0 -37 -28 -106 -42 -106 -5 0 -7 4 -4 8 12
19 -17 101 -47 134 -35 38 -127 78 -181 78 -108 0 -183 -76 -201 -204 -6 -45
-5 -48 12 -41 94 40 115 37 139 -20 47 -113 -17 -240 -153 -307 -60 -29 -78
-33 -169 -36 -119 -5 -180 9 -294 69 -42 21 -78 39 -82 39 -12 0 -88 -137 -88
-159 0 -32 42 -69 86 -76 22 -3 46 -8 54 -9 8 -1 -4 -11 -28 -21 l-43 -17 26
-32 c42 -50 77 -133 82 -194 6 -64 -14 -157 -48 -224 -32 -63 -153 -178 -225
-213 -68 -33 -74 -44 -74 -137 0 -58 19 -104 60 -143 l28 -27 48 33 c49 33
117 48 168 35 38 -9 97 -65 117 -111 23 -49 25 -142 5 -190 l-15 -35 144 0
c155 0 185 7 206 48 22 41 16 138 -14 210 l-25 63 31 -26 c195 -159 346 -234
557 -275 75 -15 272 -13 340 3 l55 13 -40 13 c-89 29 -152 112 -143 187 3 26
0 35 -14 40 -43 13 -117 85 -143 139 -49 99 -35 222 30 274 l26 20 -43 11
c-93 26 -198 91 -223 140 -22 42 -20 43 31 10 60 -37 149 -67 244 -80 131 -19
230 3 390 86 136 71 214 80 322 39 11 -5 17 3 21 30 3 20 27 72 52 115 59 100
66 141 34 176 -43 46 -97 67 -186 72 -46 2 -83 9 -83 14 0 17 74 77 133 109
101 54 217 48 217 -11 0 -31 13 -31 80 3 80 40 110 80 110 149 0 122 -87 210
-224 227 l-61 7 59 8 c204 29 339 -64 337 -232 -1 -117 -65 -213 -153 -227
-24 -4 -55 -14 -70 -21 -65 -34 -13 -138 81 -164 49 -13 91 -6 139 21 55 32
32 -2 -32 -46 -56 -39 -61 -40 -149 -43 -51 -1 -102 -5 -114 -7 -53 -12 -133
-112 -133 -167 0 -32 40 -95 76 -118 l29 -20 -28 0 c-45 0 -95 -27 -117 -62
-59 -98 26 -208 164 -212 77 -2 58 -16 -22 -16 -123 0 -224 69 -229 157 -7
100 -65 148 -178 147 -62 0 -81 -5 -160 -44 -84 -40 -97 -44 -190 -48 l-100
-5 -32 -39 c-28 -34 -33 -48 -33 -95 0 -93 17 -139 76 -203 30 -31 68 -64 86
-73 29 -14 32 -19 30 -59 -3 -54 30 -114 78 -142 28 -17 52 -21 127 -21 l91 0
-76 -37 c-217 -104 -332 -286 -296 -467 4 -17 17 -42 30 -56 l24 -26 -39 -52
c-119 -159 -166 -376 -140 -655 19 -214 58 -329 159 -463 84 -113 190 -173
374 -214 85 -18 120 -42 132 -91 5 -17 2 -37 -7 -53 -13 -22 -22 -26 -59 -26
-25 1 -52 3 -60 5 -22 7 -13 -27 21 -76 50 -74 143 -93 234 -50 98 46 159 142
158 251 0 86 -31 150 -108 224 l-62 60 30 3 c62 6 61 68 -2 129 -44 41 -102
60 -186 61 -33 0 -73 2 -89 5 l-29 5 31 13 c49 21 75 92 56 160 -4 18 -13 20
-73 20 -57 0 -74 4 -110 28 -73 49 -108 128 -96 222 l7 56 29 -46 c49 -78 124
-93 200 -42 54 36 79 90 79 172 0 39 5 77 10 85 8 12 10 11 10 -6 0 -12 18
-48 40 -81 50 -75 95 -99 171 -89 156 21 265 160 219 280 -8 22 -16 26 -53 26
-71 0 -106 48 -93 128 10 62 65 160 129 229 l62 66 8 -53 c8 -61 35 -103 77
-120 51 -21 94 -5 165 61 68 64 109 133 124 209 9 44 9 45 10 9 3 -113 -85
-239 -206 -293 -1 -1 5 -30 14 -66 21 -94 14 -256 -16 -333 -30 -77 -94 -154
-161 -194 -60 -37 -101 -41 -156 -18 -33 13 -39 13 -76 -6 -95 -49 -90 -208
11 -284 18 -14 47 -22 94 -25 l69 -5 -26 -35 c-55 -76 -69 -113 -74 -191 -5
-90 12 -161 58 -233 l32 -49 22 55 c27 65 51 100 102 148 33 32 32 29 -11 -25
-68 -85 -95 -147 -95 -220 1 -210 219 -297 370 -146 65 65 79 131 28 131 -11
0 -33 14 -49 31 -24 26 -29 40 -29 80 0 65 17 95 142 260 205 271 288 507 288
822 0 162 -17 258 -65 370 -18 42 -31 77 -29 77 10 0 59 -100 85 -172 31 -89
55 -118 99 -118 105 0 150 181 88 348 -44 120 -160 249 -294 327 -35 21 -63
40 -60 42 5 5 81 -32 118 -59 l27 -19 14 34 c8 18 27 44 43 56 25 20 37 22
126 19 97 -3 98 -3 128 27 53 54 53 137 -1 218 -41 63 -110 97 -198 98 l-66 1
76 13 c88 15 121 33 143 80 32 67 13 151 -48 211 -51 51 -109 63 -189 40 -76
-22 -130 -65 -184 -148 -27 -43 -110 -136 -196 -223 -82 -82 -165 -172 -183
-200 -53 -77 -40 -39 15 47 27 42 92 121 143 175 208 217 311 401 365 653 26
122 23 337 -6 444 -72 270 -257 463 -511 536 -96 28 -268 35 -361 16z m309
-158 c139 -42 282 -173 333 -305 47 -124 36 -288 -31 -428 -30 -64 -99 -165
-112 -165 -5 0 8 22 27 49 70 97 125 262 125 373 0 212 -193 424 -433 475 -69
14 -195 14 -257 -1 l-25 -7 25 12 c70 32 239 31 348 -3z m-488 -61 c0 -1 -29
-24 -64 -51 -80 -61 -131 -119 -234 -271 -131 -194 -241 -284 -394 -320 -98
-23 -102 -17 -8 11 157 46 275 149 429 374 86 126 116 157 205 219 56 39 66
45 66 38z m-759 -313 c-39 -83 -141 -187 -223 -226 -80 -39 -84 -35 -9 10 76
45 187 160 227 236 39 76 43 62 5 -20z m-715 -495 c22 -15 94 -78 159 -139 65
-61 137 -122 162 -137 58 -34 48 -41 -14 -10 -76 39 -159 107 -273 223 -106
107 -109 114 -34 63z m2358 -1 c-64 -125 -188 -258 -329 -354 -97 -66 -138
-89 -90 -52 218 168 326 273 390 377 41 66 56 81 29 29z m-1178 -65 c-130 -70
-337 -93 -499 -54 -48 11 -100 28 -115 37 -15 8 -18 12 -7 9 186 -60 447 -56
595 8 46 20 63 20 26 0z m-971 -500 c100 -63 157 -90 290 -139 50 -18 83 -33
75 -34 -33 -1 -218 63 -279 97 -72 39 -196 129 -226 164 -17 20 -15 20 15 -4
19 -15 76 -52 125 -84z m-406 -205 c11 -26 39 -69 63 -94 35 -39 38 -44 14
-29 -62 41 -128 176 -125 259 1 23 5 15 14 -29 8 -33 23 -81 34 -107z m1461
-9 c39 -13 111 -24 180 -28 l115 -7 -77 -8 c-49 -5 -101 -4 -145 3 -75 13
-198 69 -235 108 -19 20 -13 19 37 -12 33 -19 89 -45 125 -56z m560 -360
c-281 -150 -461 -326 -552 -539 -15 -36 -28 -59 -28 -52 0 26 60 153 109 230
57 88 155 188 247 249 61 42 290 162 309 162 6 1 -33 -22 -85 -50z m-601 -216
c-66 -68 -110 -131 -150 -216 -16 -34 -27 -51 -24 -37 4 14 24 61 45 105 29
60 55 97 104 143 81 78 99 81 25 5z m1158 -535 c-10 -206 -77 -359 -231 -526
-32 -34 -63 -62 -68 -62 -6 0 13 25 41 56 67 73 144 199 182 299 35 90 69 238
69 303 0 23 3 42 6 42 4 0 4 -51 1 -112z m-178 -65 c-32 -84 -119 -201 -182
-244 -27 -19 -25 -15 14 27 62 66 100 118 139 187 35 62 46 73 29 30z m-1068
-829 c30 -15 76 -30 104 -35 l50 -8 -56 4 c-85 5 -208 76 -241 139 -6 11 12 0
39 -26 28 -25 75 -59 104 -74z"/>
<path d="M4720 6914 c-151 -15 -326 -40 -383 -55 -73 -19 -83 -87 -16 -111 33
-11 36 -20 14 -38 -20 -16 -20 -84 0 -100 18 -15 90 -11 429 21 282 26 423 24
799 -8 324 -27 338 -27 360 9 12 19 2 61 -19 83 -19 18 -19 17 23 39 44 22 52
52 21 83 -20 19 -45 27 -149 43 -336 51 -766 65 -1079 34z m470 -97 c14 -7 26
-22 28 -34 3 -18 -4 -24 -40 -33 -50 -14 -126 -6 -147 15 -43 43 91 87 159 52z
m-323 -24 c12 -35 -70 -67 -107 -43 -13 9 -11 14 14 36 30 26 86 31 93 7z
m595 0 c22 -20 23 -39 2 -47 -48 -19 -101 6 -90 42 9 27 60 30 88 5z m-873
-28 c5 -6 -39 -43 -61 -50 -9 -3 -34 3 -55 14 l-38 19 35 16 c31 14 105 15
119 1z m1195 -8 c19 -10 19 -10 0 -24 -37 -27 -62 -27 -101 3 -32 25 -34 28
-17 34 23 9 92 1 118 -13z"/>
<path d="M4925 6598 c-115 -4 -299 -11 -407 -16 -197 -8 -198 -8 -240 -38 -52
-36 -103 -118 -119 -191 -10 -42 -10 -68 0 -121 41 -231 220 -362 662 -486
248 -69 260 -70 395 -46 269 47 512 130 656 223 78 50 145 123 181 197 28 58
31 75 32 155 0 114 -25 175 -97 240 -58 52 -96 65 -198 65 -41 0 -156 4 -255
10 -261 14 -374 16 -610 8z m-427 -105 c-31 -35 -69 -122 -80 -182 -22 -117
26 -272 111 -361 52 -54 35 -50 -28 6 -67 60 -105 116 -130 192 -45 133 -12
260 87 334 42 31 63 36 40 11z m1289 -12 c52 -38 93 -119 100 -199 11 -120
-63 -274 -165 -344 l-47 -32 39 43 c130 146 151 391 45 524 -36 45 -26 47 28
8z m-1015 -4 c-75 -80 -105 -274 -62 -406 12 -38 37 -92 55 -120 19 -28 31
-51 27 -51 -17 0 -92 88 -115 135 -75 150 -56 309 51 418 45 46 86 69 44 24z
m752 -27 c25 -29 54 -76 66 -108 47 -123 10 -296 -86 -401 -48 -54 -92 -80
-51 -31 16 18 39 54 52 81 71 138 60 369 -21 477 -39 50 -11 38 40 -18z m-549
-52 c-9 -29 -19 -105 -22 -168 -5 -97 -2 -129 16 -200 11 -46 31 -102 42 -124
l21 -41 -21 19 c-33 30 -78 133 -92 210 -15 86 -6 195 22 278 33 100 64 123
34 26z m325 5 c54 -144 46 -323 -20 -457 -18 -36 -36 -66 -39 -66 -4 0 6 39
22 88 38 111 47 258 24 377 -8 44 -18 88 -22 98 -4 9 -3 17 3 17 6 0 20 -26
32 -57z"/>
<path d="M4534 5731 c-1 -111 -59 -202 -139 -217 -30 -5 -44 0 -107 40 -101
65 -160 59 -210 -21 -29 -47 -31 -149 -5 -200 l18 -33 119 0 119 0 -28 43
c-15 23 -38 60 -50 82 l-23 40 33 -40 c126 -155 332 -310 507 -381 45 -18 62
-32 91 -75 46 -68 119 -123 200 -150 62 -21 66 -21 117 -5 79 25 172 92 215
155 33 49 46 59 122 92 47 20 125 63 174 94 82 54 232 192 297 275 l27 35 -22
-40 c-13 -22 -36 -59 -51 -82 l-29 -43 120 0 c118 0 121 1 137 25 41 63 25
184 -33 241 -49 49 -90 47 -177 -11 -38 -25 -78 -45 -89 -45 -11 0 -39 11 -63
25 -58 34 -88 97 -89 188 0 46 -4 66 -11 63 -82 -31 -308 -93 -414 -113 -74
-14 -141 -27 -147 -29 -10 -3 -13 -70 -15 -286 l-2 -283 -7 185 c-3 102 -7
231 -8 288 l-1 102 -31 0 c-58 0 -228 40 -382 90 -85 28 -156 50 -158 50 -2 0
-4 -26 -5 -59z"/>
<path d="M3140 4028 c0 -717 4 -1241 10 -1298 37 -355 169 -649 395 -876 229
-231 425 -326 989 -480 288 -78 391 -123 479 -209 31 -31 70 -78 85 -104 l27
-49 20 42 c30 63 130 156 212 199 94 49 148 67 378 128 397 105 579 176 759
296 108 71 265 219 333 313 147 203 239 450 263 705 6 67 10 581 10 1323 l0
1212 -621 0 -621 0 -61 -54 c-67 -61 -167 -121 -282 -171 -64 -27 -81 -40
-104 -77 -37 -59 -96 -108 -177 -147 -101 -49 -118 -49 -215 -4 -98 46 -145
84 -189 153 -18 28 -37 50 -42 50 -19 0 -195 87 -245 121 -26 17 -74 54 -105
81 l-56 48 -621 0 -621 0 0 -1202z m1044 835 c48 -13 71 -27 108 -65 51 -52
75 -64 158 -80 30 -5 63 -17 73 -25 26 -24 21 -74 -18 -149 -19 -38 -35 -79
-35 -92 0 -51 -50 -122 -102 -146 -10 -5 -10 -7 0 -12 29 -14 120 -79 153
-111 l36 -35 59 68 c33 37 85 96 117 131 61 67 77 97 77 142 0 90 136 132 205
64 26 -27 26 -28 6 -37 -30 -13 -26 -32 9 -46 17 -7 30 -16 30 -20 0 -5 3 -15
6 -24 4 -11 1 -16 -10 -16 -25 0 -30 -27 -12 -55 l17 -26 -106 -112 c-123
-130 -265 -326 -265 -366 0 -28 30 -62 83 -95 39 -24 127 -32 191 -16 40 9 58
10 74 1 32 -17 72 -75 79 -113 5 -34 4 -35 -26 -30 -17 2 -31 2 -31 0 0 -2 9
-21 19 -41 17 -34 18 -78 2 -77 -3 1 -17 7 -31 15 -37 21 -43 18 -36 -18 3
-18 3 -36 0 -40 -4 -3 -30 6 -58 20 -44 22 -71 27 -186 35 -74 4 -163 14 -197
21 l-62 13 -17 -38 c-21 -47 -173 -194 -272 -263 -39 -27 -71 -53 -72 -56 0
-12 44 -19 116 -19 136 0 218 -43 263 -139 36 -77 36 -193 2 -304 -23 -73 -24
-79 -9 -111 13 -27 24 -34 55 -39 64 -11 71 -9 128 43 46 42 61 50 94 50 42 0
96 -35 105 -68 2 -9 7 -27 11 -39 6 -21 3 -23 -29 -23 -36 0 -36 0 -16 -20 17
-17 21 -32 20 -77 0 -4 -18 -6 -40 -4 -41 3 -53 -12 -29 -36 17 -17 1 -33 -34
-33 -22 0 -42 -10 -69 -37 l-37 -37 -213 64 c-117 35 -219 67 -225 73 -9 7
-11 28 -7 77 9 95 -6 137 -60 161 -58 26 -76 25 -76 -7 0 -87 -68 -180 -153
-212 -29 -11 -76 -23 -106 -27 l-54 -7 5 -67 c8 -113 64 -211 120 -211 75 0
138 -60 138 -130 0 -73 -21 -100 -50 -65 -20 24 -30 18 -30 -20 0 -28 -5 -37
-31 -50 -17 -9 -32 -15 -32 -13 -22 44 -66 63 -90 39 -30 -30 -92 3 -121 64
-18 37 -20 39 -69 50 -37 8 -46 31 -91 225 -73 311 -79 335 -88 353 -14 26 -6
29 32 13 39 -16 85 -7 106 21 19 25 17 95 -4 178 l-18 70 -71 6 c-90 7 -141
37 -174 106 -21 43 -24 61 -22 158 2 141 24 225 109 420 88 200 114 272 114
320 l0 39 -37 -36 c-39 -36 -55 -45 -111 -58 l-34 -8 21 22 c33 35 28 84 -15
140 -71 94 -90 169 -59 243 43 104 152 140 260 89 97 -46 153 -141 162 -275 8
-113 -10 -197 -79 -361 -96 -231 -168 -466 -168 -551 0 -62 50 -89 102 -55 28
18 182 266 223 361 38 84 64 180 71 259 7 74 6 76 -25 111 -26 30 -31 44 -31
86 0 28 5 59 11 70 8 15 6 25 -10 44 -24 32 -44 115 -39 163 3 20 -1 64 -8 97
-7 33 -13 117 -14 186 0 142 13 201 60 270 28 41 29 48 23 108 -6 61 -5 64 13
56 35 -16 118 -16 159 -1 54 20 116 19 189 -1z m1674 -470 l162 -336 -160
-323 c-89 -178 -164 -324 -169 -324 -9 0 -321 635 -321 654 0 7 61 137 135
290 74 152 144 299 156 326 12 28 24 50 28 50 3 -1 79 -152 169 -337z m774 82
c69 -137 141 -286 162 -330 l37 -80 -163 -332 -164 -331 -109 216 c-59 119
-133 268 -163 330 l-54 113 27 62 c59 130 295 610 299 606 2 -2 60 -116 128
-254z m-389 -1540 c79 -159 154 -310 165 -335 l21 -46 -166 -333 -165 -333
-155 314 c-85 172 -159 323 -163 335 -7 17 17 76 124 295 73 150 146 301 161
336 15 34 29 61 30 60 2 -2 68 -133 148 -293z"/>
<path d="M3860 4803 c0 -12 12 -36 28 -54 18 -23 22 -31 10 -26 -23 8 -60 -37
-89 -110 -20 -51 -23 -76 -24 -203 0 -145 12 -210 39 -210 6 0 3 -7 -7 -15
-40 -29 -32 -119 16 -189 13 -18 16 -30 9 -35 -15 -9 -32 -57 -32 -89 0 -40
26 -70 66 -78 l35 -6 -6 -57 c-26 -215 -60 -311 -189 -523 -77 -128 -100 -158
-140 -185 -54 -37 -85 -36 -125 3 -33 31 -39 110 -16 206 17 69 106 309 173
466 57 132 72 311 36 411 -47 133 -173 205 -262 151 -48 -30 -72 -75 -72 -140
0 -49 5 -64 45 -124 35 -54 45 -78 45 -110 0 -23 -6 -48 -12 -55 -11 -10 -7
-10 17 -1 42 16 65 39 86 85 21 46 24 88 8 133 -6 19 -7 37 -2 47 8 13 12 12
34 -11 21 -23 24 -36 27 -118 5 -118 -9 -171 -97 -391 -87 -214 -118 -313
-130 -412 -15 -121 4 -189 69 -248 18 -16 37 -20 104 -21 l81 0 27 -95 c38
-133 37 -172 -6 -215 -26 -26 -42 -34 -70 -34 -20 0 -36 -5 -36 -11 0 -6 9
-45 19 -87 11 -43 32 -131 46 -197 45 -206 51 -220 88 -230 18 -6 37 -21 44
-35 28 -59 120 -118 99 -63 -9 22 50 8 138 -35 5 -3 6 15 3 43 -7 46 -6 47 17
41 13 -3 31 -9 40 -12 13 -5 16 1 16 28 0 47 -32 75 -101 88 -94 17 -143 98
-156 255 -7 82 3 99 64 109 200 36 259 108 251 307 -2 54 -3 99 -1 99 10 0 27
-54 32 -100 l6 -55 49 -7 c72 -10 104 -46 116 -127 5 -34 6 -77 3 -95 -5 -32
-3 -34 28 -41 19 -4 110 -29 203 -56 l168 -48 45 34 c24 18 50 36 56 38 8 3 6
11 -7 26 l-19 21 40 0 c21 0 47 6 57 13 16 12 16 14 -4 40 -12 16 -21 29 -19
30 54 29 56 35 29 65 -33 35 -70 28 -135 -25 -50 -41 -64 -48 -100 -47 -24 0
-60 10 -81 21 -54 27 -64 68 -41 166 26 110 30 167 17 231 -21 102 -100 167
-220 181 -30 4 -68 10 -85 15 -85 23 -80 25 -113 -43 -17 -34 -34 -87 -38
-116 -6 -48 -8 -52 -16 -30 -22 55 6 160 64 241 10 15 60 55 109 89 107 73
229 191 249 238 13 33 13 35 -11 50 -33 21 -109 99 -109 112 0 6 15 -4 32 -22
67 -67 183 -102 395 -118 73 -6 149 -17 169 -26 49 -20 54 -19 54 10 0 22 2
24 26 15 16 -7 23 -7 19 0 -3 6 -1 10 4 10 15 0 14 33 -1 48 -10 10 -7 16 10
28 30 21 28 48 -9 78 -36 30 -34 30 -89 11 -57 -20 -99 -19 -164 5 -69 26
-101 52 -137 109 -34 52 -37 75 -11 67 14 -5 24 4 40 31 44 79 171 247 254
336 60 65 84 98 78 107 -5 7 -6 28 -3 46 5 29 2 35 -21 44 -30 11 -30 11 -12
55 16 39 10 45 -49 45 -43 0 -67 -30 -84 -104 -11 -50 -22 -67 -113 -163 -156
-169 -149 -155 -132 -237 16 -76 14 -94 -6 -44 -21 54 -89 151 -128 181 -20
15 -60 35 -89 43 -64 19 -137 67 -172 113 l-26 34 30 -7 c17 -4 60 -10 96 -13
64 -5 66 -4 93 27 37 44 32 76 -11 72 -29 -3 -79 15 -111 41 -10 8 -10 13 0
24 22 27 57 34 88 18 41 -21 73 -19 97 8 44 47 56 104 29 127 -16 12 -135 40
-174 40 -13 0 -35 -14 -53 -35 -29 -32 -59 -46 -59 -27 0 5 18 25 40 45 47 41
50 67 14 96 -43 34 -97 42 -250 39 -140 -3 -144 -4 -144 -25z"/>
</g>
</svg>
